<svg width="48" height="48" viewBox="0 0 48 48" fill="none" xmlns="http://www.w3.org/2000/svg"><rect width="48" height="48" rx="24" fill="#CDE8EA"/><path fill-rule="evenodd" clip-rule="evenodd" d="M15.25 15c0-.966.784-1.75 1.75-1.75h10.5a.75.75 0 0 1 .558.248l4.5 5a.75.75 0 0 1 .192.502v4.5a.75.75 0 0 1-1.5 0v-4.212l-4.084-4.538H17a.25.25 0 0 0-.25.25v18c0 .138.112.25.25.25h6a.75.75 0 0 1 0 1.5h-6A1.75 1.75 0 0 1 15.25 33V15Z" fill="#003B4A"/><path fill-rule="evenodd" clip-rule="evenodd" d="M32.975 27.42a.75.75 0 0 1 .105 1.055l-4.5 5.5a.75.75 0 0 1-1.06.101l-3-2.5a.75.75 0 1 1 .96-1.152l2.419 2.015 4.02-4.914a.75.75 0 0 1 1.056-.105ZM27 13.25a.75.75 0 0 1 .75.75v4.25H32a.75.75 0 0 1 0 1.5h-5a.75.75 0 0 1-.75-.75v-5a.75.75 0 0 1 .75-.75Z" fill="#003B4A"/></svg>