<svg width="24" height="24" viewBox="0 0 24 24" fill="none" xmlns="http://www.w3.org/2000/svg"><path fill-rule="evenodd" clip-rule="evenodd" d="M21 11.25a.75.75 0 0 1 .75.75v9a.75.75 0 0 1-.75.75H3a.75.75 0 0 1-.75-.75v-8.996a.75.75 0 1 1 1.5 0v8.246h16.5V12a.75.75 0 0 1 .75-.75Z" fill="#003B4A"/><path fill-rule="evenodd" clip-rule="evenodd" d="M6.97 10.97a.75.75 0 0 1 1.06 0L12 14.94l3.97-3.97a.75.75 0 1 1 1.06 1.06l-4.5 4.5a.75.75 0 0 1-1.06 0l-4.5-4.5a.75.75 0 0 1 0-1.06Z" fill="#003B4A"/><path fill-rule="evenodd" clip-rule="evenodd" d="M11.996 2.25a.75.75 0 0 1 .75.75v13a.75.75 0 1 1-1.5 0V3a.75.75 0 0 1 .75-.75Z" fill="#003B4A"/></svg>