<svg width="48" height="48" viewBox="0 0 48 48" fill="none" xmlns="http://www.w3.org/2000/svg"><rect width="48" height="48" rx="24" fill="#CDE8EA"/><path fill-rule="evenodd" clip-rule="evenodd" d="M15.25 16a.75.75 0 0 1 .75-.75h9a.75.75 0 0 1 .53.22l8.087 8.086a2.55 2.55 0 0 1 0 3.595l-.002.002-6.453 6.453a2.55 2.55 0 0 1-3.608 0L15.47 25.53a.75.75 0 0 1-.22-.531v-9Zm1.5.75v7.94l7.865 7.855a1.052 1.052 0 0 0 1.486 0l6.452-6.451a1.05 1.05 0 0 0 0-1.48L24.69 16.75H16.75Z" fill="#003B4A"/><path fill-rule="evenodd" clip-rule="evenodd" d="M21.25 22.5a1.25 1.25 0 1 0 0-2.5 1.25 1.25 0 0 0 0 2.5Z" fill="#003B4A"/></svg>