<svg width="24" height="24" viewBox="0 0 24 24" fill="none" xmlns="http://www.w3.org/2000/svg"><circle opacity=".5" cx="12" cy="12" r="10.75"/><path fill-rule="evenodd" clip-rule="evenodd" d="M1.25 12C1.25 6.063 6.063 1.25 12 1.25S22.75 6.063 22.75 12 17.937 22.75 12 22.75 1.25 17.937 1.25 12ZM12 2.75a9.25 9.25 0 1 0 0 18.5 9.25 9.25 0 0 0 0-18.5Z" fill="#003B4A"/><path fill-rule="evenodd" clip-rule="evenodd" d="M15.359 8.641a.75.75 0 0 1 0 1.061l-5.657 5.657a.75.75 0 0 1-1.06-1.06l5.656-5.658a.75.75 0 0 1 1.06 0Z" fill="#003B4A"/><path fill-rule="evenodd" clip-rule="evenodd" d="M8.641 8.641a.75.75 0 0 1 1.06 0l5.658 5.657a.75.75 0 1 1-1.06 1.06L8.64 9.703a.75.75 0 0 1 0-1.06Z" fill="#003B4A"/></svg>