<svg width="25" height="24" viewBox="0 0 25 24" fill="none" xmlns="http://www.w3.org/2000/svg"><path d="M12.587 24c-1.8 0-3.49-.299-5.019-.888a11.964 11.964 0 0 1-4.004-2.514 11.532 11.532 0 0 1-2.631-3.805C.313 15.347 0 13.733 0 12c0-1.734.314-3.317.933-4.775a11.522 11.522 0 0 1 2.63-3.823A11.954 11.954 0 0 1 7.569.888C9.101.298 10.79 0 12.587 0c1.797 0 3.52.305 5.052.904 1.53.6 2.879 1.452 4.004 2.53a11.74 11.74 0 0 1 2.649 3.806c.288.662.517 1.385.68 2.147l.025.12h-3.653l-.02-.072a8.105 8.105 0 0 0-.329-.937 8.793 8.793 0 0 0-1.913-2.81 8.627 8.627 0 0 0-2.879-1.875c-1.093-.437-2.298-.657-3.581-.657s-2.521.222-3.615.657a8.446 8.446 0 0 0-2.86 1.873A8.902 8.902 0 0 0 4.25 8.498c-.452 1.058-.682 2.237-.682 3.502 0 1.265.23 2.45.682 3.52a8.705 8.705 0 0 0 1.897 2.81 8.54 8.54 0 0 0 2.862 1.857c1.093.436 2.31.657 3.614.657 1.306 0 2.488-.222 3.582-.658a8.753 8.753 0 0 0 2.879-1.856 8.54 8.54 0 0 0 1.913-2.81c.12-.282.228-.595.331-.955l.02-.072H25l-.026.12c-.162.762-.39 1.483-.68 2.147a11.717 11.717 0 0 1-2.648 3.805c-1.125 1.079-2.478 1.93-4.022 2.531-1.542.6-3.235.904-5.036.904" fill="#003B4A"/><path d="M12.182 18.998a7.788 7.788 0 0 1-2.862-.517 6.77 6.77 0 0 1-2.285-1.467 6.71 6.71 0 0 1-1.502-2.22C5.179 13.948 5 13.008 5 11.998s.179-1.934.533-2.785a6.72 6.72 0 0 1 1.5-2.23A6.815 6.815 0 0 1 9.32 5.517 7.793 7.793 0 0 1 12.182 5c1.025 0 2.007.177 2.882.527a6.92 6.92 0 0 1 2.284 1.476 6.855 6.855 0 0 1 1.564 2.351l.071.18H16.7l-.028-.05a5.048 5.048 0 0 0-.833-1.116 4.822 4.822 0 0 0-1.62-1.077 5.333 5.333 0 0 0-2.016-.378 5.4 5.4 0 0 0-2.035.38 4.73 4.73 0 0 0-1.61 1.076 5.152 5.152 0 0 0-1.069 1.618 5.208 5.208 0 0 0-.383 2.015c0 .73.13 1.41.383 2.025.256.616.615 1.16 1.069 1.616.454.459.996.818 1.61 1.068.616.252 1.3.38 2.035.38.735 0 1.401-.128 2.017-.38a4.893 4.893 0 0 0 2.486-2.238l.028-.051H19l-.05.132c-.03.075-.058.15-.089.224a6.839 6.839 0 0 1-1.511 2.219 6.882 6.882 0 0 1-2.296 1.476 7.737 7.737 0 0 1-2.87.527" fill="#003B4A"/></svg>