<svg width="20" height="21" viewBox="0 0 20 21" fill="none" xmlns="http://www.w3.org/2000/svg"><path fill-rule="evenodd" clip-rule="evenodd" d="M11.452 2.746a5.603 5.603 0 0 1 2.187.106 5.554 5.554 0 0 1 2.583 1.466l-.408.408.408-.408A5.553 5.553 0 0 1 17.687 6.9c.18.716.215 1.46.107 2.188a.577.577 0 1 1-1.141-.17 4.447 4.447 0 0 0-.085-1.737 4.399 4.399 0 0 0-1.162-2.047 4.4 4.4 0 0 0-2.047-1.162 4.45 4.45 0 0 0-1.737-.085.577.577 0 0 1-.17-1.141Z" fill="#003B4A"/><path fill-rule="evenodd" clip-rule="evenodd" d="M11.595 5.499c.871-.13 1.794.14 2.466.813.673.672.944 1.595.814 2.467a.577.577 0 0 1-1.142-.17 1.727 1.727 0 0 0-.487-1.481m0 0a1.728 1.728 0 0 0-1.481-.488.577.577 0 0 1-.17-1.141M8.018 9.147c.036.125.096.306.187.52.183.428.487.972.97 1.455m0 0a4.632 4.632 0 0 0 1.454.969c.212.09.392.15.517.185l1.622-.81a1.346 1.346 0 0 1 1.256.027l1.7.945c.427.237.692.688.692 1.176v1.952c0 1.354-1.279 2.395-2.626 1.94-1.946-.656-5.059-1.933-7.062-3.936s-3.28-5.116-3.936-7.062c-.455-1.347.586-2.626 1.94-2.626h1.951c.49 0 .94.266 1.177.693l.941 1.695c.216.388.226.858.027 1.255l-.81 1.622" fill="#003B4A"/></svg>