<svg width="16" height="16" viewBox="0 0 16 16" fill="none" xmlns="http://www.w3.org/2000/svg"><path fill-rule="evenodd" clip-rule="evenodd" d="m12.322 13.193.012-.03 2-10.08v-.032c0-.251-.093-.47-.295-.602a.837.837 0 0 0-.523-.112 1.764 1.764 0 0 0-.514.123l-.037.015-.008.004L1.81 6.85l-.003.002a1.142 1.142 0 0 0-.1.04c-.06.028-.143.07-.227.128-.144.098-.416.33-.37.698.038.305.248.499.39.599a1.379 1.379 0 0 0 .29.156l.007.002.004.002 1.95.657c-.006.122.006.247.039.37l.976 3.705a1 1 0 0 0 1.89.131l1.525-1.63 2.62 2.008.037.016c.238.104.46.137.663.109a.986.986 0 0 0 .486-.21 1.16 1.16 0 0 0 .328-.423l.005-.012.001-.004.001-.002ZM4.757 9.25a.2.2 0 0 1 .086-.22l6.614-4.2s.39-.237.376 0c0 0 .069.041-.14.236-.197.184-4.714 4.545-5.17 4.986a.185.185 0 0 0-.052.09l-.738 2.814-.976-3.706Z" fill="#003B4A"/></svg>