<svg width="16" height="16" viewBox="0 0 16 16" fill="none" xmlns="http://www.w3.org/2000/svg"><mask id="a" fill="#fff"><path fill-rule="evenodd" clip-rule="evenodd" d="M1.456 14.22a.267.267 0 0 0 .325.33l3.071-.803c.97.526 2.061.805 3.173.805h.003c3.657 0 6.639-2.964 6.639-6.608 0-1.766-.69-3.427-1.943-4.674a6.611 6.611 0 0 0-4.696-1.937c-3.657 0-6.639 2.964-6.639 6.608 0 1.159.306 2.298.888 3.302l-.82 2.978Zm4.468-9.44c.122.003.257.01.386.295.085.19.229.54.346.825.091.222.166.405.185.442.043.086.069.184.013.299a8.465 8.465 0 0 0-.019.039.956.956 0 0 1-.152.247c-.032.035-.064.074-.096.113-.057.069-.113.137-.162.185-.085.086-.175.178-.076.348.1.17.446.732.957 1.185.55.49 1.027.696 1.269.8.047.02.085.036.113.05.171.086.273.073.372-.042.1-.115.429-.5.544-.67.113-.17.228-.144.386-.085.159.059 1.003.472 1.174.558l.095.046c.12.057.2.096.235.154.043.072.043.414-.099.814-.145.4-.844.785-1.16.814l-.091.01c-.29.035-.659.08-1.97-.437-1.618-.636-2.685-2.213-2.901-2.532a1.848 1.848 0 0 0-.035-.051l-.004-.005c-.098-.131-.698-.935-.698-1.764 0-.794.39-1.207.569-1.395l.03-.033a.634.634 0 0 1 .46-.213c.115 0 .23 0 .329.003Z"/></mask><path fill-rule="evenodd" clip-rule="evenodd" d="M1.456 14.22a.267.267 0 0 0 .325.33l3.071-.803c.97.526 2.061.805 3.173.805h.003c3.657 0 6.639-2.964 6.639-6.608 0-1.766-.69-3.427-1.943-4.674a6.611 6.611 0 0 0-4.696-1.937c-3.657 0-6.639 2.964-6.639 6.608 0 1.159.306 2.298.888 3.302l-.82 2.978Zm4.468-9.44c.122.003.257.01.386.295.085.19.229.54.346.825.091.222.166.405.185.442.043.086.069.184.013.299a8.465 8.465 0 0 0-.019.039.956.956 0 0 1-.152.247c-.032.035-.064.074-.096.113-.057.069-.113.137-.162.185-.085.086-.175.178-.076.348.1.17.446.732.957 1.185.55.49 1.027.696 1.269.8.047.02.085.036.113.05.171.086.273.073.372-.042.1-.115.429-.5.544-.67.113-.17.228-.144.386-.085.159.059 1.003.472 1.174.558l.095.046c.12.057.2.096.235.154.043.072.043.414-.099.814-.145.4-.844.785-1.16.814l-.091.01c-.29.035-.659.08-1.97-.437-1.618-.636-2.685-2.213-2.901-2.532a1.848 1.848 0 0 0-.035-.051l-.004-.005c-.098-.131-.698-.935-.698-1.764 0-.794.39-1.207.569-1.395l.03-.033a.634.634 0 0 1 .46-.213c.115 0 .23 0 .329.003Z" fill="#003B4A"/><path d="m1.78 14.55.256.976-.255-.976Zm-.324-.33-.973-.267.973.268Zm3.396-.473.48-.887a1.01 1.01 0 0 0-.735-.09l.255.977ZM12.724 3.27l.712-.715-.712.715ZM1.39 7.94l1.01.001h-1.01Zm.888 3.303.973.268a1.01 1.01 0 0 0-.1-.774l-.873.506ZM6.31 5.075l.92-.413v-.001l-.92.414Zm-.386-.295-.033 1.009h.006l.027-1.01Zm.732 1.12-.934.384.934-.383Zm.185.442-.902.453.902-.453Zm.013.299-.907-.443.907.443Zm-.019.039.91.438-.91-.438Zm-.152.247.76.663-.76-.663Zm-.096.113.777.644-.777-.644Zm-.162.185.712.716-.712-.716Zm-.076.348-.873.506.873-.506Zm.957 1.185.67-.754v-.001l-.67.755Zm1.269.8-.4.927.4-.927Zm.113.05-.45.904.45-.904Zm.372-.042-.765-.659.765.659Zm.544-.67.836.566.008-.012-.844-.554Zm.386-.085.353-.946-.353.946Zm1.174.558.45-.904-.45.904Zm.095.046.437-.91-.437.91Zm.235.154-.868.515.868-.515Zm-.099.814.95.344.002-.007-.952-.337Zm-1.16.814-.095-1.005.094 1.005Zm-.091.01.121 1.002-.121-1.002Zm-1.97-.437.369-.939-.37.94ZM5.272 8.238l-.836.565.836-.565Zm-.035-.051.809-.604-.809.604Zm-.004-.005.809-.604-.809.604Zm-.13-3.159-.733-.694.734.694Zm.032-.033.74.686-.74-.686Zm-3.61 8.583a.743.743 0 0 1 .903.916l-1.946-.536a1.276 1.276 0 0 0 1.553 1.573l-.51-1.953Zm3.071-.802-3.071.802.51 1.953 3.071-.802-.51-1.953Zm3.428.771c-.943 0-1.87-.236-2.692-.682l-.962 1.775a7.676 7.676 0 0 0 3.654.926v-2.019Zm.003 0h-.003v2.019h.003v-2.019Zm5.63-5.598c0 3.081-2.525 5.598-5.63 5.598v2.019c4.21 0 7.648-3.411 7.648-7.617h-2.019Zm-1.646-3.959a5.543 5.543 0 0 1 1.645 3.96h2.019a7.56 7.56 0 0 0-2.24-5.39l-1.424 1.43ZM8.028 2.343c1.51 0 2.92.583 3.984 1.642l1.424-1.43A7.62 7.62 0 0 0 8.028.324v2.019ZM2.398 7.94c0-3.082 2.525-5.598 5.63-5.598V.323C3.818.324.38 3.736.38 7.942H2.4Zm.752 2.796a5.574 5.574 0 0 1-.751-2.796H.38c0 1.337.353 2.65 1.023 3.808l1.747-1.012Zm-.72 3.752.82-2.978-1.947-.536-.82 2.978 1.946.536Zm4.8-9.828c-.113-.252-.296-.53-.61-.713-.31-.18-.613-.176-.669-.177l-.054 2.018c.066.002-.109.01-.289-.094-.183-.106-.234-.24-.218-.205l1.84-.83Zm.36.856c-.114-.277-.266-.646-.36-.855l-1.841.827c.077.17.213.502.333.795l1.868-.767Zm.153.372c.008.017.012.027.01.02a1.58 1.58 0 0 1-.046-.106 72.885 72.885 0 0 1-.117-.286l-1.868.767c.077.186.175.429.217.511l1.804-.906Zm.018 1.195c.25-.512.097-.965-.018-1.195l-1.804.906a.718.718 0 0 1 .008-.597l1.814.886Zm-.017.034.017-.035-1.814-.885-.021.044 1.818.876Zm-.3.471c.17-.196.251-.369.3-.47l-1.818-.877-.014.03a1.165 1.165 0 0 1-.01.017c-.003.008-.004.008-.001.004a.251.251 0 0 1 .02-.03L7.444 7.59Zm-.08.095c.034-.041.058-.07.08-.094L5.921 6.264c-.042.047-.082.096-.113.133l1.555 1.287Zm-.226.256c.09-.09.18-.2.226-.256L5.81 6.397l-.071.085c-.02.024-.027.03-.025.028l1.425 1.43Zm.085-.873a.71.71 0 0 1 .086.267.82.82 0 0 1-.161.593c-.02.025-.036.039-.011.014L5.713 6.51c-.015.015-.23.208-.34.503-.147.392-.067.774.103 1.066l1.747-1.012Zm.752.936a4.118 4.118 0 0 1-.753-.936L5.476 8.08c.119.204.53.874 1.16 1.434l1.34-1.511Zm1 .628c-.207-.089-.568-.244-.998-.627L6.635 9.512c.67.596 1.263.853 1.54.973l.8-1.854Zm.162.074c-.058-.03-.126-.058-.162-.074l-.8 1.854.054.023.009.004.9-1.807Zm-.842.202a.77.77 0 0 1 .488-.247.747.747 0 0 1 .333.036l.021.009-.899 1.807c.152.076.434.193.78.152.393-.046.655-.264.807-.44l-1.53-1.317Zm.473-.577c-.025.039-.105.14-.219.277-.103.125-.205.244-.254.3l1.53 1.317c.078-.09.458-.53.615-.762L8.768 8.33Zm1.575-.465c-.057-.021-.344-.14-.681-.1a1.249 1.249 0 0 0-.901.577l1.687 1.108a.678.678 0 0 1-.174.176.818.818 0 0 1-.376.144.728.728 0 0 1-.248-.012c-.031-.007-.045-.014-.013-.002l.706-1.891Zm1.27.6c-.09-.045-.347-.172-.603-.295-.227-.109-.532-.255-.667-.305l-.706 1.891a30.19 30.19 0 0 1 .497.233c.25.12.5.243.58.283l.9-1.807Zm.083.04a6.014 6.014 0 0 1-.082-.04l-.9 1.807.109.053.873-1.82Zm.666.549a1.242 1.242 0 0 0-.427-.424c-.093-.056-.196-.104-.24-.125l-.872 1.82.063.03-.004-.002a.841.841 0 0 1-.256-.269l1.736-1.03Zm-.015 1.666c.1-.282.153-.552.173-.781.01-.114.012-.232.003-.348-.005-.062-.022-.303-.161-.537l-1.736 1.03a.918.918 0 0 1-.103-.255.567.567 0 0 1-.013-.08c-.001-.018 0-.013-.002.018-.005.06-.022.16-.064.28l1.903.673Zm-2.019 1.482c.391-.037.806-.237 1.098-.424.278-.18.728-.528.918-1.051l-1.898-.688a.352.352 0 0 1 .039-.08l-.009.01a.869.869 0 0 1-.144.112 1.233 1.233 0 0 1-.239.118c-.009.003.009-.003.047-.007l.188 2.01Zm-.063.007.064-.007-.19-2.01c-.045.004-.088.01-.116.013l.242 2.004Zm-2.462-.5c.688.271 1.181.417 1.572.482.427.072.7.041.89.018l-.242-2.004c-.1.012-.157.021-.314-.005-.195-.032-.541-.123-1.166-.369l-.74 1.879ZM4.437 8.803c.209.309 1.428 2.144 3.367 2.907l.738-1.879c-1.294-.51-2.21-1.83-2.433-2.159L4.437 8.803ZM4.43 8.79a.779.779 0 0 1-.008-.01l-.003-.005v.002l.008.01.011.016 1.672-1.13c-.008-.012-.038-.057-.062-.09L4.429 8.79Zm-.003-.004.003.005 1.618-1.208-.004-.005-1.617 1.208Zm-.9-2.368c0 .64.226 1.214.422 1.6.202.399.418.688.478.768l1.617-1.208a3.23 3.23 0 0 1-.294-.472c-.13-.256-.204-.5-.204-.688H3.526Zm.845-2.089c-.232.246-.845.901-.845 2.089h2.019a.93.93 0 0 1 .1-.451c.052-.098.112-.165.193-.25L4.37 4.329Zm.025-.025a3.763 3.763 0 0 1-.025.025l1.467 1.388.038-.04-1.48-1.373Zm1.198-.537c-.346 0-.818.126-1.198.537l1.48 1.372a.38.38 0 0 1-.282.11V3.767Zm.363.004c-.119-.004-.252-.004-.363-.004v2.019c.12 0 .218 0 .297.003l.066-2.018Z" fill="#003B4A" mask="url(#a)"/></svg>