<svg width="48" height="48" viewBox="0 0 48 48" fill="none" xmlns="http://www.w3.org/2000/svg"><rect width="48" height="48" rx="24" fill="#CDE8EA"/><path fill-rule="evenodd" clip-rule="evenodd" d="M24.57 13.415a.75.75 0 0 1 .28.585v20a.75.75 0 0 1-.911.733l-9.1-2A.75.75 0 0 1 14.25 32V16a.75.75 0 0 1 .589-.732l9.1-2a.75.75 0 0 1 .631.147Zm-8.82 3.188v14.794l7.6 1.67V14.933l-7.6 1.67Z" fill="#003B4A"/><path fill-rule="evenodd" clip-rule="evenodd" d="M23.35 16a.75.75 0 0 1 .75-.75H33a.75.75 0 0 1 .75.75v16a.75.75 0 0 1-.75.75h-8.9a.75.75 0 0 1 0-1.5h8.15v-14.5H24.1a.75.75 0 0 1-.75-.75ZM21 22.25a.75.75 0 0 1 .75.75v2a.75.75 0 0 1-1.5 0v-2a.75.75 0 0 1 .75-.75Z" fill="#003B4A"/></svg>