<svg width="48" height="48" viewBox="0 0 48 48" fill="none" xmlns="http://www.w3.org/2000/svg"><rect width="48" height="48" rx="24" fill="#CDE8EA"/><path fill-rule="evenodd" clip-rule="evenodd" d="M32.142 21.935c-.233.62-.392 1.527-.392 2.565s.16 1.945.392 2.565c.117.313.238.514.335.623l.023.025a.914.914 0 0 0 .023-.025c.097-.11.218-.31.335-.623.233-.62.392-1.527.392-2.565s-.16-1.945-.392-2.565c-.117-.313-.238-.514-.335-.623a.914.914 0 0 0-.023-.025.914.914 0 0 0-.023.025c-.097.11-.218.31-.335.623Zm.415-.695-.004.002a.015.015 0 0 1 .005-.003Zm-.11.002a.019.019 0 0 1-.005-.003l.005.002Zm-.005 6.518.005-.002a.015.015 0 0 1-.005.003Zm.111-.002a.019.019 0 0 1 .005.003l-.005-.002Zm-1.198-7.441c.261-.295.646-.567 1.145-.567s.884.272 1.145.567c.262.295.464.68.618 1.091.31.828.487 1.921.487 3.092 0 1.17-.177 2.264-.487 3.092-.154.41-.356.796-.618 1.091-.261.295-.646.567-1.145.567s-.884-.272-1.145-.567c-.262-.295-.464-.68-.618-1.091-.31-.828-.487-1.921-.487-3.092 0-1.17.177-2.264.487-3.092.154-.41.356-.796.618-1.091ZM15.142 21.935c-.233.62-.392 1.527-.392 2.565s.16 1.945.392 2.565c.117.313.238.514.335.623l.023.025a.914.914 0 0 0 .023-.025c.097-.11.218-.31.335-.623.233-.62.392-1.527.392-2.565s-.16-1.945-.392-2.565c-.117-.313-.238-.514-.335-.623a.914.914 0 0 0-.023-.025.914.914 0 0 0-.023.025c-.097.11-.218.31-.335.623Zm.415-.695-.004.002a.015.015 0 0 1 .004-.003Zm-.11.002a.019.019 0 0 1-.004-.003l.004.002Zm-.004 6.518.004-.002a.015.015 0 0 1-.004.003Zm.11-.002a.019.019 0 0 1 .004.003l-.004-.002Zm-1.198-7.441c.261-.295.646-.567 1.145-.567s.884.272 1.145.567c.262.295.464.68.618 1.091.31.828.487 1.921.487 3.092 0 1.17-.177 2.264-.487 3.092-.154.41-.356.796-.618 1.091-.261.295-.646.567-1.145.567s-.884-.272-1.145-.567c-.262-.295-.464-.68-.618-1.091-.31-.828-.487-1.921-.487-3.092 0-1.17.177-2.264.487-3.092.154-.41.356-.796.618-1.091ZM22.597 17.144c-.517 1.723-.847 4.147-.847 6.856 0 2.71.33 5.134.847 6.856.26.865.554 1.511.847 1.924.307.433.505.47.556.47.05 0 .25-.037.556-.47.293-.413.587-1.059.847-1.924.517-1.723.847-4.147.847-6.856 0-2.71-.33-5.134-.847-6.856-.26-.865-.554-1.511-.847-1.924-.307-.433-.505-.47-.556-.47-.05 0-.25.037-.556.47-.293.413-.587 1.059-.847 1.924Zm-.377-2.792c.412-.58 1.002-1.102 1.78-1.102s1.368.522 1.78 1.102c.424.6.776 1.418 1.06 2.361.569 1.898.91 4.474.91 7.287 0 2.813-.341 5.39-.91 7.287-.284.943-.636 1.762-1.06 2.361-.412.58-1.002 1.102-1.78 1.102s-1.368-.522-1.78-1.102c-.424-.6-.776-1.418-1.06-2.361-.569-1.898-.91-4.474-.91-7.287 0-2.813.341-5.39.91-7.287.284-.943.636-1.762 1.06-2.361Z" fill="#003B4A"/><path fill-rule="evenodd" clip-rule="evenodd" d="M28.313 18.525c-.343 1.373-.563 3.309-.563 5.475 0 2.166.22 4.102.563 5.475.173.692.367 1.199.554 1.515.054.09.099.152.133.194.034-.042.08-.103.133-.194.187-.316.38-.823.554-1.515.343-1.373.563-3.309.563-5.475 0-2.166-.22-4.102-.563-5.475-.173-.692-.367-1.199-.554-1.515a1.514 1.514 0 0 0-.133-.194c-.034.042-.08.103-.133.194-.187.316-.38.823-.554 1.515Zm-.737-2.278c.262-.444.719-.997 1.424-.997s1.162.553 1.424.997c.292.494.529 1.159.718 1.914.38 1.523.608 3.587.608 5.839 0 2.252-.227 4.316-.608 5.839-.19.755-.426 1.42-.718 1.914-.262.444-.719.997-1.424.997s-1.162-.553-1.424-.997c-.292-.494-.529-1.159-.718-1.914-.38-1.523-.608-3.587-.608-5.839 0-2.252.227-4.316.608-5.839.19-.755.426-1.42.718-1.914ZM18.313 18.525c-.343 1.373-.563 3.309-.563 5.475 0 2.166.22 4.102.563 5.475.173.692.367 1.199.554 1.515.054.09.099.152.133.194.034-.042.08-.103.133-.194.187-.316.38-.823.554-1.515.343-1.373.563-3.309.563-5.475 0-2.166-.22-4.102-.563-5.475-.173-.692-.367-1.199-.554-1.515a1.514 1.514 0 0 0-.133-.194c-.034.042-.08.103-.133.194-.187.316-.38.823-.554 1.515Zm-.737-2.278c.262-.444.719-.997 1.424-.997s1.162.553 1.424.997c.292.494.529 1.159.718 1.914.38 1.523.608 3.587.608 5.839 0 2.252-.227 4.316-.608 5.839-.19.755-.426 1.42-.718 1.914-.262.444-.719.997-1.424.997s-1.162-.553-1.424-.997c-.292-.494-.529-1.159-.718-1.914-.38-1.523-.608-3.587-.608-5.839 0-2.252.227-4.316.608-5.839.19-.755.426-1.42.718-1.914Z" fill="#003B4A"/></svg>