<svg width="48" height="48" viewBox="0 0 48 48" fill="none" xmlns="http://www.w3.org/2000/svg"><rect width="48" height="48" rx="24" fill="#CDE8EA"/><path fill-rule="evenodd" clip-rule="evenodd" d="M17.25 18.5a4.25 4.25 0 1 1 8.5 0 4.25 4.25 0 0 1-8.5 0Zm4.25-2.75a2.75 2.75 0 1 0 0 5.5 2.75 2.75 0 0 0 0-5.5ZM28.165 15.33a.75.75 0 0 1 1.006.335L28.5 16l.67-.335h.001l.001.002.002.004.005.01.014.029.043.097c.035.082.08.197.13.342.101.29.219.7.297 1.205a7.348 7.348 0 0 1-.469 3.93.75.75 0 1 1-1.388-.568c.5-1.222.5-2.33.375-3.132a5.475 5.475 0 0 0-.232-.944 3.663 3.663 0 0 0-.117-.298l-.004-.01v.002M31.636 13.344a.75.75 0 0 1 1.02.292L32 14l.656-.364v.001l.001.002.003.005.007.014.024.045a8.371 8.371 0 0 1 .325.738c.19.495.416 1.203.567 2.075.301 1.747.3 4.155-.9 6.794a.75.75 0 1 1-1.366-.62c1.05-2.311 1.049-4.403.788-5.919a9.542 9.542 0 0 0-.489-1.792 6.875 6.875 0 0 0-.258-.588l-.013-.025-.002-.004v.001h.001a.75.75 0 0 1 .292-1.019ZM20.367 25.25h2.266c1.092 0 1.958 0 2.655.057.714.058 1.317.18 1.868.46a4.75 4.75 0 0 1 2.076 2.077c.281.55.403 1.154.461 1.868.057.697.057 1.563.057 2.655V33a.75.75 0 0 1-.75.75H14a.75.75 0 0 1-.75-.75v-.633c0-1.092 0-1.958.057-2.655.058-.714.18-1.317.46-1.868a4.75 4.75 0 0 1 2.077-2.076c.55-.281 1.154-.403 1.868-.461.697-.057 1.563-.057 2.655-.057Zm-3.843 1.854a3.25 3.25 0 0 0-1.42 1.42c-.155.305-.251.69-.302 1.31-.05.601-.052 1.362-.052 2.416h13.5c0-1.054-.003-1.815-.052-2.416-.05-.62-.147-1.005-.302-1.31a3.25 3.25 0 0 0-1.42-1.42m-9.951 0c.304-.155.688-.251 1.309-.302.63-.051 1.433-.052 2.566-.052h2.2c1.133 0 1.937 0 2.566.052.62.05 1.005.147 1.31.302" fill="#003B4A"/></svg>