<svg width="48" height="48" viewBox="0 0 48 48" fill="none" xmlns="http://www.w3.org/2000/svg"><rect width="48" height="48" rx="24" fill="#CDE8EA"/><path fill-rule="evenodd" clip-rule="evenodd" d="M13.25 24c0-5.937 4.813-10.75 10.75-10.75S34.75 18.063 34.75 24 29.937 34.75 24 34.75 13.25 29.937 13.25 24ZM24 14.75a9.25 9.25 0 1 0 0 18.5 9.25 9.25 0 0 0 0-18.5Z" fill="#003B4A"/><path fill-rule="evenodd" clip-rule="evenodd" d="M24.004 17.25a.75.75 0 0 1 .75.75v5.694l4.02 4.02a.75.75 0 1 1-1.061 1.06l-4.24-4.24a.75.75 0 0 1-.22-.53L23.255 18a.75.75 0 0 1 .75-.75Z" fill="#003B4A"/></svg>