<svg width="48" height="48" viewBox="0 0 48 48" fill="none" xmlns="http://www.w3.org/2000/svg"><rect width="48" height="48" rx="24" fill="#CDE8EA"/><path d="M36.579 18.751c-2.181-3.764-6.341-8.251-13.756-8.251C15.407 10.5 10 14.316 10 19.378c0 3.14 1.774 4.795 4.47 6.227.01.044.017.092.027.14.343 1.928.917 5.158 6.542 5.158.818 0 1.835-.205 2.83-.442.76.888 3.348 4.066 4.079 7.039.49-2.62.625-3.655.423-4.775.247.24.552.442 1.007.477.186.013.388.023.597.023.904 0 1.95-.181 2.675-.873.529-.503.811-1.202.843-2.079.003-.123.007-.243.007-.356 1.148-.12 2.023-.6 2.899-1.569 1.687-1.87 2.463-5.668.186-9.597h-.006Zm-8.824 16.434c-.763-2.083-2.104-4.004-2.85-4.984.3-.075.596-.15.871-.216.164.822.815 1.504 1.492 1.706a.93.93 0 0 1 .24.113c.337 1.065.334 2.562.247 3.38Zm5.094-4.936c-.026.682-.238 1.22-.63 1.593-.724.688-1.917.75-2.793.675-.433-.035-.65-.305-.923-.648-.26-.322-.552-.688-1.059-.839-.461-.137-.914-.63-1.026-1.185.237-.048.452-.079.622-.093.5-.034 1.007-.05 1.501-.05 1.068 0 1.944.078 2.72.146.593.055 1.11.1 1.6.1 0 .096 0 .195-.006.298l-.006.003Zm2.389-3.09c-.061.07-.122.124-.18.186-.423.181-.869.054-1.382-.237.41.586.135.915-.234 1.096-.18.024-.366.034-.568.034-.43 0-.92-.044-1.488-.095-.805-.072-1.716-.155-2.854-.155-.36 0-.722.01-1.088.028a2.576 2.576 0 0 1-.78-.373c-.16.236-.38.404-.602.53-.472.096-1.007.23-1.59.377-1.188.298-2.531.64-3.436.64-3.181 0-4.195-1.05-4.64-2.346a1.24 1.24 0 0 1 .278-.99c-.603.07-.606-.88-.58-1.308.237-1.585 1.097-2.466 2.075-2.688.74-.172 1.783.318 2.566.17 1.07-.201 2.104-1.05 3.768-.941l-.843-.48c.388-.106.78-.294 1.093-.606.417-.414.549-1.014.308-1.74 0 0-.198.815-.882 1.37-.554.456-1.292.47-1.748.404-.06-.006-.073-.078-.138-.089-.279-.054-.702-1.466-.702-1.466-.022.12-.199 1.127.11 1.744-.1.014-.245.044-.501.092-.334.062-.642.12-.94.165.308-1.507-.407-2.504-.471-2.734 0 0 .388 1-.203 2.799-.108.003-.22.01-.327.007a4.9 4.9 0 0 0-1.068.082c-.782-1.565-2.411-1.668-2.488-1.685 0 0 1.18.644 1.837 1.85a4.398 4.398 0 0 0-2.245 1.674 1.664 1.664 0 0 0-.654-.52c-.228-.295-.234-.302-.013-.638.475-.722.15-1.503.135-1.537 0 0 .109.342-.66 1.144-.258.267-.34.5-.328.715-.24-.123-.504-.36-.603-.616-.064-.168-.029-.274.003-.34.542-1.061.173-2.075.173-2.075 0 .01-.301.898-.734 1.75a1.113 1.113 0 0 0-.035.929c.205.527.737.941 1.16 1.078.062.021.126.038.19.059.414.123.773.23.994.702-.1.209-.183.435-.253.675-1.668-.96-2.553-1.88-2.9-3.066v-.017c-.035-.305-.465-1.343.379-1.96-.302-.05-.395-.314-.395-.612.222-.84.661-1.62 1.283-2.33.167-.082.337-.082.5.076a1.258 1.258 0 0 1 .142-.716c1.363-1.216 3.313-2.137 5.61-2.606.323.048.718.168 1.02.445.458-.493.827-.65 1.195-.747.427-.03.863-.048 1.306-.048.632 0 1.244.038 1.844.107.186.794.693 1.222 1.084 1.548.148.123.285.236.382.35.182.215.26.5.189.69-.055.148-.199.234-.433.258-1.424.14-1.815 1.27-1.822 1.85 0 0 .16-.98 1.88-1.169.65-.072.888-.458.971-.688.16-.438.039-.986-.31-1.4a3.685 3.685 0 0 0-.466-.433c-.298-.246-.596-.5-.77-.9 2.412.4 4.536 1.387 6.36 2.952a11.128 11.128 0 0 0-2.35-.199h-.036c-.51-.113-.513-.558-.801-1.04 0 0 0 1.469.773 1.726h.073c1.453-.021 2.66.191 3.477.592.552.59 1.068 1.243 1.556 1.952-.013.007-.03.01-.042.018-.196.075-.398.174-.606.181-.873.027-1.614-.791-1.614-.791.07.15.674 1.384 1.498 1.47.138.41.01 1.044-.02 1.191 0 0 .524-.53.415-1.226.202-.045.384-.116.554-.185.084-.034.148-.058.206-.075.138.215.276.435.407.66.28.484.5.953.674 1.405-.08.572-.632 1.264-.857 1.493l-.09.093-.01.13c.187 1.51-.567 2.572-.567 2.572.045-.051 1.042-1.212 1.193-2.387.145-.158.417-.486.642-.887.58 2.456-.267 4.319-.963 5.093l.007-.01Zm-3.929-3.524c-.346.195-.58.47-.731.713-.28.448-2.954.763-4.17.007a.496.496 0 0 1-.237-.292c-.148-.455.317-1.113.629-1.486.243.089.532.15.856.185.119.014.23.02.34.02.57 0 1.014-.178 1.312-.534.391-.466.391-.904.211-1.812 0 0 .061.706-.69 1.353-.243.212-.586.36-1.109.291-1.498-.198-1.77-1.195-1.77-1.195s-.106.496.064.997c.096.284.333.493.664.64-.462.315-1.139.887-1.152 1.52 0 .09.01.196.045.306-.109.27-.25.626-1.61.757-2.104.198-2.097-1.384-2.113-1.453 0 0-.257.867.122 1.504-2.13.373-3.39-.692-3.39-.692.025.048.394.757 1.308 1.161-.815.72-.49 1.5-.49 1.5.003-.01.468-1.044 1.247-1.27.196.034.404.055.632.055.247 0 .52-.031.808-.083.003.028.01.052.013.076.128.757.773 1.216.86 1.28 0 0-.552-1.133-.36-1.51.27.106.62.161 1.078.134.112 0 .23-.007.353-.02 1.299-.148 1.757-.487 1.994-.884.02.013.036.027.055.04.212.13.465.237.747.323-.192.243-.365.544-.372.852.257-.417.574-.63.828-.743.414.082.856.123 1.296.123.891 0 1.744-.167 2.225-.486.234 0 .703.062 1.286.428a4.606 4.606 0 0 0-.885-.835c.119-.127.302-.274.49-.429.723-.585 1.816-1.472 1.261-2.86 0 0 .254 1.24-1.648 2.316l.003.003Zm-16.764-7.5c-1.78.116-1.51 1.359-1.51 1.359.025-.096.262-1.014 1.317-.856-.086.287-.118.49-.118.49 1.09-1.836 2.844-2.374 2.844-2.374-1.452-.257-2.177.62-2.53 1.38h-.003Zm7.383-3.388c-.026.034-.565.839.4 2.027a2.97 2.97 0 0 0-.394.593c-.927-1.264-2.059-1.03-2.412-.914a1.982 1.982 0 0 0-.43.202.54.54 0 0 1-.205-.172c-.208-.287-.183-.79-.157-.959 0 0-.85.542-.353 1.377.061.103.126.182.193.24-.125.154-.234.322-.34.483-.16.243-.324.5-.552.74-.552.589-1.44.592-1.45.592 0 0 1.104.62 1.906-.106.288-.26.458-.579.625-.836.285-.438.49-.753.953-.907.356-.117 1.254-.243 1.962 1.068-.099.442-.118.867.01 1.206 0 0-.064-.661.876-1.863.41-.52.615-1.27.914-1.72 0 0-.353.21-.735.555-.84-.633-.811-1.606-.811-1.606Zm6.177 6.014c1.055-.698 1.408-.589 2.252-.164 1.369.692 1.27 2.322 1.27 2.322.247-.709.356-2.24-.988-2.939-1.027-.534-1.26-.654-2.181-.072.06-.428-.035-.928-.417-1.49.221 1.648-.401 2.333-1.043 3.296 0 0 .674-.336 1.11-.956l-.003.003Z" fill="#003B4A"/></svg>