<svg width="48" height="48" viewBox="0 0 48 48" fill="none" xmlns="http://www.w3.org/2000/svg"><rect width="48" height="48" rx="24" fill="#CDE8EA"/><path d="M37.828 25.706c-2.617-11.707-6.413-13.413-7.924-13.603a4.31 4.31 0 0 0-.57-.036c-.973 0-3.242.403-3.242 4.154v1.64a4.6 4.6 0 0 0-.68-.348V10h-.652v7.976l.222.075a4.3 4.3 0 0 1 1.11.594v1.549c-.736-.45-1.495-.666-2.27-.63a4.11 4.11 0 0 0-1.92.607v-1.568c.293-.217.68-.45 1.152-.594l.231-.07v-7.936h-.65v7.458a4.49 4.49 0 0 0-.733.354v-1.591c0-1.513-.371-2.638-1.1-3.343-.548-.529-1.287-.808-2.14-.808a4.98 4.98 0 0 0-.57.037c-1.51.19-5.31 1.896-7.924 13.602-.905 4.049-.892 6.185.046 7.363.488.613 1.205.925 2.132.925 2.66 0 9.559-.899 9.559-5v-8.038c.453-.332 1.136-.706 1.957-.742.755-.033 1.504.227 2.233.765V29c0 4.101 6.902 5 9.559 5 .927 0 1.644-.312 2.132-.925.938-1.181.95-3.314.046-7.363l-.004-.006Zm-17.554 3.287c0 2.376-5.167 3.36-7.93 3.36-.544 0-.746-.164-.86-.308-.55-.696-.46-2.707.273-5.978 2.52-11.274 5.89-12.255 6.537-12.333.134-.017.254-.027.368-.027.443 0 1.615 0 1.615 2.514v12.776l-.003-.004Zm16.24 3.052c-.115.144-.317.308-.86.308-2.768 0-7.931-.984-7.931-3.36V16.217c0-2.513 1.172-2.513 1.615-2.513.114 0 .234.007.367.026.652.082 4.018 1.06 6.538 12.333.732 3.275.823 5.286.273 5.978l-.003.004Z" fill="#003B4A"/></svg>