<svg width="48" height="48" viewBox="0 0 48 48" fill="none" xmlns="http://www.w3.org/2000/svg"><rect width="48" height="48" rx="24" fill="#CDE8EA"/><path d="m21.273 28.69-4.732-.43s.286.715 1.26.804c.974.09 2.367.21 3.393.31 1.025.097 1.999.73 1.999.73-.499-1.198-1.848-1.404-1.92-1.415Zm17.436 4.807c.044-2.079-.895-6.24-4.773-7.11a37.257 37.257 0 0 0-3.441-.616h-.041c-.23-.024-2.24-.306-2.24-3.933v-.936c2.66-2.16 5.202-5.942 5.202-10.402h-1.72c0 5.912-5.53 10.626-7.698 10.626s-7.697-4.71-7.697-10.626h-1.72c0 4.46 2.546 8.241 5.202 10.402v.936c0 3.627-2.01 3.91-2.226 3.93h-.052c-.058.01-1.493.186-3.441.623-3.878.87-4.818 5.03-4.773 7.109l1.72-.034c0-.19-.037-4.618 3.428-5.396 1.855-.416 3.255-.585 3.269-.588.458-.055 3.692-.61 3.792-5.417.922.503 1.79.778 2.498.778.71 0 1.58-.275 2.498-.778.1 4.807 3.338 5.361 3.796 5.417 0 0 1.404.168 3.269.588 3.468.778 3.43 5.206 3.427 5.396l1.72.034v-.003ZM29.273 22.44l3.324 2.367v-1.019h3.104v-2.838h-3.104v-.875l-3.324 2.368v-.003Zm-4.47 7.666s.974-.633 2-.73c1.025-.096 2.419-.216 3.393-.31.973-.088 1.259-.804 1.259-.804l-4.731.43c-.076.01-1.422.217-1.92 1.414Z" fill="#003B4A"/></svg>