<svg width="32" height="32" viewBox="0 0 32 32" fill="none" xmlns="http://www.w3.org/2000/svg"><circle cx="16" cy="16" r="15" stroke="#003B4A" stroke-width="2"/><path fill-rule="evenodd" clip-rule="evenodd" d="M22.5 16a.5.5 0 0 1-.5.5H10a.5.5 0 1 1 0-1h12a.5.5 0 0 1 .5.5Z" fill="#003B4A" stroke="#003B4A" stroke-width=".5" stroke-linecap="round" stroke-linejoin="round"/><path fill-rule="evenodd" clip-rule="evenodd" d="M22.354 15.646a.5.5 0 0 1 0 .708l-4 4a.5.5 0 1 1-.708-.707L21.293 16l-3.647-3.646a.5.5 0 0 1 .707-.708l4 4Z" fill="#003B4A" stroke="#003B4A" stroke-width=".5" stroke-linecap="round" stroke-linejoin="round"/></svg>