<svg width="48" height="48" viewBox="0 0 48 48" fill="none" xmlns="http://www.w3.org/2000/svg"><rect width="48" height="48" rx="24" fill="#CDE8EA"/><path d="M26.29 23.162c.45 0 .818.38.818.845a.833.833 0 0 1-.818.845h-1.134a.32.32 0 0 0-.315.325v1.17a.833.833 0 0 1-.818.846.833.833 0 0 1-.819-.846v-1.17a.32.32 0 0 0-.315-.325h-1.133a.833.833 0 0 1-.819-.845c0-.466.367-.845.819-.845h1.133a.32.32 0 0 0 .315-.325v-1.17c0-.466.367-.846.819-.846.451 0 .818.38.818.845v1.17c0 .18.141.326.315.326h1.134Z" fill="#003B4A"/><path d="M33.05 16.047c2.64 2.789 2.59 7.237-.092 9.943l-6.8 7.078a3.017 3.017 0 0 1-4.36.002l-6.802-7.082c-2.382-2.442-2.668-6.38-.664-9.16C15.626 15.03 17.615 14 19.787 14c1.467 0 2.867.48 4.048 1.386a.305.305 0 0 0 .375 0 6.624 6.624 0 0 1 4.045-1.374c1.808 0 3.511.723 4.796 2.035Zm-1.152 8.75c1.972-2.068 1.972-5.433-.003-7.504a5.043 5.043 0 0 0-3.622-1.535c-1.364 0-2.65.545-3.628 1.542a.77.77 0 0 1-.263.182.81.81 0 0 1-.897-.19 5.043 5.043 0 0 0-3.622-1.534c-1.364 0-2.65.545-3.626 1.539-1.953 2.06-1.953 5.415.003 7.478l6.808 7.029a1.417 1.417 0 0 0 2.047-.008l6.72-6.937a.316.316 0 0 0 .083-.062Z" fill="#003B4A"/></svg>