<svg width="48" height="48" viewBox="0 0 48 48" fill="none" xmlns="http://www.w3.org/2000/svg"><rect width="48" height="48" rx="24" fill="#CDE8EA"/><path d="M21.202 26.124a.674.674 0 1 1-.001 1.349.674.674 0 0 1 .001-1.349ZM21.668 21.461c.629 0 1.14.511 1.14 1.14 0 .629-.511 1.14-1.14 1.14a1.141 1.141 0 0 1 0-2.28ZM26.332 24.26c.628 0 1.14.51 1.14 1.14a1.141 1.141 0 0 1-2.28 0c0-.63.51-1.14 1.14-1.14Z" fill="#003B4A"/><path d="M33.327 23.326a.674.674 0 0 1 0 1.348h-.988a.259.259 0 0 0-.258.23 8.077 8.077 0 0 1-1.731 4.167.26.26 0 0 0 .018.345l.703.703c.127.131.197.3.197.476a.685.685 0 0 1-.412.622.685.685 0 0 1-.523 0 .632.632 0 0 1-.214-.146l-.703-.702a.249.249 0 0 0-.083-.056.258.258 0 0 0-.263.037 8.075 8.075 0 0 1-4.166 1.731.26.26 0 0 0-.23.258v.988a.674.674 0 0 1-1.348 0v-.988a.26.26 0 0 0-.23-.258 8.073 8.073 0 0 1-4.167-1.731.258.258 0 0 0-.345.019l-.703.702a.633.633 0 0 1-.215.146.684.684 0 0 1-.523 0 .685.685 0 0 1-.412-.622c0-.175.07-.345.198-.476l.702-.703a.26.26 0 0 0 .019-.345 8.076 8.076 0 0 1-1.731-4.167.259.259 0 0 0-.258-.23h-.988a.674.674 0 0 1 0-1.348h.988c.132 0 .243-.099.258-.23a8.078 8.078 0 0 1 1.731-4.167.26.26 0 0 0-.019-.345l-.702-.703a.685.685 0 0 1-.198-.476.685.685 0 0 1 .412-.622.685.685 0 0 1 .523 0 .633.633 0 0 1 .215.146l.703.702a.247.247 0 0 0 .082.056.259.259 0 0 0 .263-.037 8.076 8.076 0 0 1 4.167-1.731.259.259 0 0 0 .23-.258v-.988a.674.674 0 0 1 1.348 0v.988c0 .132.099.243.23.258 1.527.17 2.968.769 4.167 1.731a.257.257 0 0 0 .345-.019l.703-.702a.632.632 0 0 1 .215-.146.684.684 0 0 1 .737.146c.127.131.197.3.197.476 0 .175-.07.345-.197.476l-.703.703a.26.26 0 0 0-.019.345 8.079 8.079 0 0 1 1.732 4.167.26.26 0 0 0 .258.23h.988Zm-3.731 1.348a.674.674 0 0 1 0-1.348h.858a.268.268 0 0 0 .11-.024.246.246 0 0 0 .086-.065.253.253 0 0 0 .06-.207c-.43-2.95-2.79-5.31-5.74-5.74-.1-.003-.16.019-.207.06a.27.27 0 0 0-.067.09.25.25 0 0 0-.023.106v1.79a.674.674 0 0 1-1.347 0v-1.79a.25.25 0 0 0-.023-.107.258.258 0 0 0-.236-.153c-2.987.433-5.347 2.794-5.778 5.744a.254.254 0 0 0 .06.207.27.27 0 0 0 .196.09h.859a.674.674 0 0 1 0 1.347h-.858a.269.269 0 0 0-.11.024.247.247 0 0 0-.086.065.268.268 0 0 0-.06.207c.43 2.95 2.79 5.31 5.74 5.74.1.003.16-.02.207-.06a.271.271 0 0 0 .067-.09.25.25 0 0 0 .022-.106v-1.79a.674.674 0 0 1 1.348 0v1.79a.25.25 0 0 0 .022.107.26.26 0 0 0 .236.153c2.988-.433 5.348-2.794 5.778-5.744a.253.253 0 0 0-.06-.207.247.247 0 0 0-.087-.065.27.27 0 0 0-.109-.024h-.858Z" fill="#003B4A"/><path d="M26.798 20.528a.675.675 0 0 1 0 1.348.674.674 0 0 1 0-1.348Z" fill="#003B4A"/></svg>