<svg width="48" height="48" viewBox="0 0 48 48" fill="none" xmlns="http://www.w3.org/2000/svg"><rect width="48" height="48" rx="24" fill="#CDE8EA"/><path d="M29.143 28.393a.743.743 0 1 1-.001 1.487.743.743 0 0 1 0-1.487Z" fill="#003B4A"/><path d="M31.086 24.689a4.86 4.86 0 0 1 2.509 6.391 4.86 4.86 0 0 1-6.395 2.508 4.854 4.854 0 0 1-2.506-6.393.285.285 0 0 0-.262-.401h-5.575c-.724 0-1.314.589-1.314 1.314v.184a.266.266 0 0 0 .05.162.306.306 0 0 0 .14.108c.706.249 1.271.758 1.594 1.432a2.78 2.78 0 0 1 .113 2.14 2.805 2.805 0 0 1-3.573 1.705 2.802 2.802 0 0 1-1.707-3.572c.284-.8.905-1.422 1.707-1.705a.306.306 0 0 0 .14-.108.267.267 0 0 0 .05-.161v-.184a2.805 2.805 0 0 1 1.867-2.631.306.306 0 0 0 .14-.108.267.267 0 0 0 .05-.162v-6.353a.285.285 0 0 0-.285-.286H16.8a.744.744 0 0 1 0-1.485h12.343a.286.286 0 0 0 .285-.285 2.803 2.803 0 0 1 2.8-2.799h1.03a.743.743 0 0 1 0 1.485h-1.03c-.724 0-1.314.59-1.314 1.314v7.628a.268.268 0 0 0 .045.153c.03.047.074.084.127.109Zm-1.943 7.816a3.374 3.374 0 0 0 3.371-3.37 3.374 3.374 0 0 0-3.371-3.37 3.374 3.374 0 0 0-3.371 3.37 3.374 3.374 0 0 0 3.371 3.37ZM19.6 18.855v2.056c0 .158.128.286.286.286h9.257a.285.285 0 0 0 .285-.286v-2.056a.285.285 0 0 0-.285-.286h-9.257a.285.285 0 0 0-.286.286Zm.286 6.454h6.171c.063 0 .124-.021.173-.058a4.83 4.83 0 0 1 2.912-.97.298.298 0 0 0 .11-.022.286.286 0 0 0 .176-.264v-1.028a.285.285 0 0 0-.285-.285h-9.257a.285.285 0 0 0-.286.285v2.056c0 .158.128.286.286.286Zm-1.772 5.883a1.315 1.315 0 0 0-2.628 0 1.316 1.316 0 0 0 2.628 0Z" fill="#003B4A"/></svg>