<svg width="48" height="48" viewBox="0 0 48 48" fill="none" xmlns="http://www.w3.org/2000/svg"><rect width="48" height="48" rx="24" fill="#CDE8EA"/><path d="M33.995 33.168a.75.75 0 0 1-.745.832.735.735 0 0 1-.737-.643c-.301-2.775-1.947-5.15-4.278-6.47a.282.282 0 0 0-.252-.013.282.282 0 0 0-.093.062l-3.366 3.342a.699.699 0 0 1-.236.16.759.759 0 0 1-.576 0 .699.699 0 0 1-.237-.16l-3.365-3.342a.28.28 0 0 0-.093-.062.283.283 0 0 0-.253.014c-2.33 1.32-3.976 3.694-4.277 6.47a.735.735 0 0 1-.738.642.75.75 0 0 1-.744-.833c.413-3.708 2.876-6.8 6.236-8.146.219-.087.269-.37.084-.516a5.86 5.86 0 0 1-2.254-4.617C18.07 16.636 20.725 14 24 14a6.2 6.2 0 0 1 .677.037c2.703.298 4.902 2.473 5.212 5.156a5.862 5.862 0 0 1-2.217 5.316c-.183.143-.128.426.088.513 3.36 1.347 5.822 4.438 6.235 8.146ZM19.603 19.446c-.017.17.125.315.296.315h8.202c.17 0 .313-.145.296-.315A4.409 4.409 0 0 0 24 15.494a4.41 4.41 0 0 0-4.397 3.952ZM24 24.281a4.424 4.424 0 0 0 4.036-2.597.308.308 0 0 0-.279-.438h-7.514a.308.308 0 0 0-.279.438A4.424 4.424 0 0 0 24 24.28Zm2.193 2.243c.17-.168.083-.449-.149-.505a8.671 8.671 0 0 0-4.088 0 .3.3 0 0 0-.15.505l1.96 1.945c.029.03.065.055.105.071a.34.34 0 0 0 .364-.07l1.958-1.946Z" fill="#003B4A"/></svg>