<svg width="48" height="48" viewBox="0 0 48 48" fill="none" xmlns="http://www.w3.org/2000/svg"><rect width="48" height="48" rx="24" fill="#CDE8EA"/><path d="M20.914 30.913a.741.741 0 1 0 0-1.483.741.741 0 0 0 0 1.483Z" fill="#003B4A"/><path d="M31.2 14c1.544 0 2.8 1.256 2.8 2.8v14.4c0 1.544-1.256 2.8-2.8 2.8H16.8a2.803 2.803 0 0 1-2.8-2.8V16.8c0-1.544 1.256-2.8 2.8-2.8h14.4Zm1.314 5.886V16.8c0-.725-.59-1.315-1.314-1.315H16.8c-.725 0-1.315.59-1.315 1.315v3.086c0 .158.128.285.286.285h3.693a.298.298 0 0 0 .109-.021.276.276 0 0 0 .09-.06l1.758-1.716a.72.72 0 0 1 .275-.187.758.758 0 0 1 .572.015c.09.04.168.095.231.164l2.88 3.292c.024.029.055.053.09.07a.288.288 0 0 0 .328-.057l1.274-1.284a.71.71 0 0 1 .24-.16.769.769 0 0 1 .289-.056h4.628a.286.286 0 0 0 .286-.285Zm0 6.17v-4.113a.286.286 0 0 0-.286-.286h-4.207a.297.297 0 0 0-.111.023.272.272 0 0 0-.092.063l-1.726 1.756a.708.708 0 0 1-.235.158.766.766 0 0 1-.284.058.778.778 0 0 1-.298-.073.711.711 0 0 1-.237-.18l-2.88-3.291a.272.272 0 0 0-.09-.07.3.3 0 0 0-.114-.028.304.304 0 0 0-.21.08l-1.33 1.289a.707.707 0 0 1-.236.158.764.764 0 0 1-.286.057h-4.12a.286.286 0 0 0-.286.286v4.114c0 .158.127.286.285.286h16.457a.286.286 0 0 0 .286-.286Zm0 5.144v-3.086a.286.286 0 0 0-.286-.286H15.771a.285.285 0 0 0-.285.286V31.2c0 .724.59 1.314 1.314 1.314h14.4c.725 0 1.314-.59 1.314-1.314Z" fill="#003B4A"/><path d="M17.828 30.913a.741.741 0 1 0 0-1.483.741.741 0 0 0 0 1.483Z" fill="#003B4A"/></svg>