<svg width="1056" height="141" viewBox="0 0 1056 141" fill="none" xmlns="http://www.w3.org/2000/svg"><path d="M72.62 140.514c-10.469 0-20.115-1.733-28.948-5.2-8.832-3.466-16.483-8.368-22.96-14.715-6.479-6.346-11.556-13.769-15.215-22.278C1.83 89.821 0 80.464 0 70.257s1.83-19.556 5.497-28.064c3.66-8.5 8.763-15.923 15.31-22.278C27.348 13.568 35.032 8.666 43.865 5.2 52.697 1.733 62.344 0 72.813 0c10.6 0 20.379 1.803 29.342 5.401C111.119 9 118.744 14.33 125.02 21.394l-12.754 12.36c-5.235-5.497-11.117-9.585-17.665-12.264-6.548-2.678-13.542-4.026-21-4.026-7.72 0-14.881 1.304-21.49 3.921-6.61 2.618-12.334 6.285-17.175 10.995-4.84 4.71-8.605 10.303-11.284 16.78-2.687 6.478-4.018 13.508-4.018 21.097 0 7.59 1.34 14.619 4.018 21.096 2.688 6.478 6.443 12.072 11.284 16.781 4.84 4.71 10.566 8.378 17.175 10.995 6.609 2.617 13.77 3.922 21.49 3.922 7.458 0 14.452-1.34 21-4.027 6.539-2.679 12.43-6.837 17.665-12.465l12.754 12.36c-6.276 7.064-13.901 12.43-22.865 16.089-8.955 3.668-18.802 5.506-29.534 5.506ZM345.113 140.514h-19.626V3.125h19.626v137.389Zm80.665-61.24h-82.626v-17.08h82.626v17.08ZM424.01 3.124h19.626v137.38H424.01V3.125ZM472.812 140.374l62.213-137.38h19.433l62.405 137.38h-20.606L540.715 13.98h7.852l-55.542 126.394h-20.213Zm26.498-34.341 5.305-15.704h77.33l5.69 15.704H499.31ZM649.776 140.514V20.204h-47.103V3.124h113.631v17.078h-47.103v120.311h-19.425ZM909.805 140.514V3.125h16.089l61.626 103.819h-8.64l60.84-103.819h16.09l.19 137.38h-18.84l-.19-107.749h4.52l-54.171 91.065h-9.025l-54.562-91.065h4.902v107.749h-18.829v.009ZM779.007 5.804c-8.561 3.475-16.019 8.36-22.366 14.68-6.346 6.32-11.257 13.778-14.724 22.383-3.475 8.605-5.217 17.962-5.226 28.09-.008 10.25 1.742 19.678 5.261 28.292 3.519 8.605 8.448 16.081 14.777 22.418 6.329 6.338 13.743 11.284 22.234 14.838 4 1.672 8.193 2.924 12.544 3.808l.026-19.486c-1.908-.534-3.781-1.138-5.593-1.882-6.338-2.6-11.914-6.241-16.746-10.933-4.832-4.684-8.544-10.163-11.152-16.431-2.609-6.268-3.904-13.07-3.896-20.414.009-7.467 1.322-14.33 3.948-20.588 2.626-6.26 6.355-11.695 11.196-16.308 4.841-4.614 10.435-8.211 16.772-10.803 6.347-2.582 13.306-3.877 20.878-3.86 7.58.009 14.575 1.313 20.974 3.913 6.398 2.6 11.983 6.215 16.745 10.837 4.771 4.63 8.448 10.076 11.056 16.335 2.609 6.267 3.904 13.139 3.896 20.606-.009 7.344-1.322 14.137-3.948 20.404-2.618 6.26-6.32 11.73-11.1 16.405-4.771 4.674-10.364 8.307-16.772 10.889-1.847.745-3.755 1.349-5.69 1.883l-.026 19.468c4.35-.876 8.552-2.119 12.553-3.782 8.499-3.536 15.923-8.456 22.269-14.776 6.346-6.32 11.292-13.813 14.829-22.47 3.536-8.667 5.313-18.06 5.322-28.179.009-10.128-1.707-19.494-5.165-28.1-3.449-8.604-8.342-16.08-14.671-22.417-6.329-6.338-13.743-11.24-22.234-14.733C826.487 2.398 817.147.648 806.949.64c-10.067-.035-19.381 1.698-27.942 5.165ZM204.504 122.333c-1.97-.543-3.913-1.156-5.795-1.917-6.478-2.618-12.141-6.312-16.982-11.091-4.841-4.771-8.605-10.365-11.284-16.781-2.687-6.408-4.026-13.41-4.026-21s1.339-14.557 4.026-20.904c2.679-6.346 6.443-11.94 11.284-16.78 4.841-4.841 10.496-8.57 16.982-11.188 1.882-.762 3.825-1.374 5.795-1.917V2.661c-4.788.884-9.375 2.18-13.743 3.922-8.894 3.536-16.623 8.473-23.154 14.82-6.547 6.346-11.642 13.77-15.31 22.278-3.659 8.508-5.497 17.796-5.497 27.872 0 10.075 1.829 19.363 5.497 27.871 3.659 8.509 8.763 15.932 15.31 22.278 6.539 6.347 14.295 11.284 23.259 14.82 4.368 1.725 8.92 3.012 13.647 3.887v-18.076h-.009ZM287.419 43.585c-3.598-8.57-8.667-16.028-15.206-22.375-6.547-6.346-14.259-11.248-23.153-14.715a74.67 74.67 0 0 0-13.945-3.904V20.73c2.049.551 4.062 1.173 5.997 1.96 6.477 2.618 12.097 6.347 16.877 11.188 4.77 4.84 8.5 10.434 11.187 16.78 2.679 6.347 4.018 13.315 4.018 20.904 0 7.59-1.339 14.593-4.018 21-2.687 6.417-6.417 12.002-11.187 16.781-4.78 4.78-10.4 8.474-16.877 11.091-1.935.779-3.948 1.409-5.997 1.961v18.138a74.641 74.641 0 0 0 13.945-3.905c8.894-3.466 16.614-8.368 23.153-14.715 6.539-6.346 11.608-13.769 15.206-22.278 3.597-8.5 5.401-17.857 5.401-28.064 0-10.093-1.804-19.416-5.401-27.985Z" fill="#003B4A"/></svg>