<svg width="106" height="23" viewBox="0 0 106 23" fill="none" xmlns="http://www.w3.org/2000/svg"><path d="M16.014 16.701h-2.656V.588h2.656v16.113Z" fill="#fff"/><path fill-rule="evenodd" clip-rule="evenodd" d="M62.444 16.701h2.523v-1.593h.044c.775 1.283 2.17 1.862 3.652 1.862 3.275 0 5.245-2.438 5.245-5.58 0-3.143-2.103-5.577-5.134-5.577-1.992 0-3.054.93-3.608 1.615H65.1V.676h-2.656v16.025Zm8.808-5.311c0 1.66-1.173 3.186-3.12 3.186-1.948 0-3.12-1.527-3.12-3.186 0-1.66 1.172-3.187 3.12-3.187 1.947 0 3.12 1.527 3.12 3.187ZM85.844 11.589v.73h-8.1c.178 1.571 1.373 2.523 2.855 2.523 1.328 0 2.191-.62 2.855-1.439l1.904 1.439c-1.24 1.527-2.811 2.128-4.493 2.128-3.209 0-5.776-2.239-5.776-5.58 0-3.342 2.567-5.577 5.776-5.577 2.966 0 4.98 2.08 4.98 5.776ZM80.49 7.805c-1.572 0-2.545.995-2.744 2.522h5.444c-.022-1.549-1.04-2.522-2.7-2.522Z" fill="#fff"/><path d="M87.621 16.701h2.656v-5.688c0-.575.354-2.677 2.855-2.677.42 0 .84.088 1.283.199V5.968a3.424 3.424 0 0 0-.951-.155c-1.394 0-2.567.73-3.143 1.947h-.044V6.078H87.62v10.623Z" fill="#fff"/><path fill-rule="evenodd" clip-rule="evenodd" d="M103.477 6.078v1.594h-.044c-.775-1.284-2.169-1.86-3.652-1.86-3.275 0-5.245 2.435-5.245 5.578 0 3.01 2.103 5.447 5.29 5.447 1.327 0 2.699-.512 3.474-1.552h.044v.774c0 2.106-.796 3.567-3.364 3.567-1.482 0-2.589-.553-3.651-1.527l-1.593 2.169c1.504 1.328 3.297 1.748 5.267 1.748 4.138 0 5.997-2.434 5.997-6.267V6.08h-2.523Zm-3.142 2.125c1.925 0 3.142 1.283 3.142 3.12 0 1.77-1.195 3.12-3.165 3.12-1.792 0-3.12-1.393-3.12-3.075 0-1.882 1.284-3.165 3.143-3.165Z" fill="#fff"/><path d="M46.43 16.701h-2.656V6.078h2.523v1.66h.044c.465-.996 1.483-1.925 3.253-1.925 1.638 0 2.767.642 3.32 1.97.774-1.35 1.903-1.97 3.496-1.97 2.833 0 3.83 2.014 3.83 4.559V16.7h-2.657v-6.02c0-1.327-.398-2.478-1.97-2.478-1.659 0-2.279 1.372-2.279 2.744v5.754H50.68v-6.33c0-1.305-.531-2.168-1.815-2.168-1.748 0-2.434 1.283-2.434 2.7V16.7Z" fill="#fff"/><path fill-rule="evenodd" clip-rule="evenodd" d="M17.81 11.39c0 3.341 2.567 5.58 5.776 5.58 3.21 0 5.776-2.239 5.776-5.58 0-3.342-2.567-5.577-5.776-5.577-3.209 0-5.776 2.235-5.776 5.577Zm2.656 0c0-1.66 1.173-3.187 3.12-3.187 1.948 0 3.12 1.527 3.12 3.187s-1.172 3.186-3.12 3.186c-1.947 0-3.12-1.527-3.12-3.186ZM0 16.701h5.643c2.966 0 5.931-1.062 5.931-4.47 0-2.014-1.416-3.563-3.386-3.785v-.044c1.616-.487 2.722-1.66 2.722-3.43 0-2.855-2.434-3.94-4.802-3.94H0v15.669ZM2.788 3.423H5.09c2.102 0 3.032.664 3.032 2.014 0 1.172-.93 1.97-2.789 1.97H2.788V3.422Zm0 6.373h2.678c2.258 0 3.32.576 3.32 2.213 0 2.059-1.992 2.302-3.43 2.302H2.788V9.796ZM36.383 16.97c-3.21 0-5.776-2.239-5.776-5.58 0-3.342 2.567-5.577 5.776-5.577 3.209 0 5.776 2.235 5.776 5.577 0 3.341-2.567 5.58-5.776 5.58Zm0-8.767c-1.948 0-3.12 1.527-3.12 3.187s1.172 3.186 3.12 3.186c1.947 0 3.12-1.527 3.12-3.186 0-1.66-1.173-3.187-3.12-3.187Z" fill="#fff"/></svg>