<svg width="96" height="25" viewBox="0 0 96 25" fill="none" xmlns="http://www.w3.org/2000/svg"><path d="M20.848 8.068h-1.091v9.511H17.71l-4.977-6.477v4.363h1.091v2.114H9.223v-2.114h1.09V8.068h-1.09V5.954h3.511l4.636 6.034v-3.92h-1.09V5.954h4.602c-.034 0-.034 2.114-.034 2.114Zm7.295 5.42v.546h-5.08c-.136 1.636.478 2.113 1.398 2.113.784 0 1.364-.511 1.364-1.33h2.181c-.034 1.433-.784 3.069-3.681 3.069-2.864 0-4.193-2.08-4.193-4.398 0-2.08 1.363-4.295 4.159-4.295 2.659 0 3.852 1.875 3.852 4.295Zm12.545-2.08h-.75l-1.875 6.307h-2.489l-1.159-3.443-1.056 3.443h-2.523l-2.08-6.306h-.75V9.26h4.398v2.148h-1.09l1.158 3.34 1.5-5.488h1.364l1.84 5.489.99-3.341h-1.092V9.26h3.682c-.068 0-.068 2.148-.068 2.148Zm3.102.069c0 .307.239.511 1.057.75l1.193.375c1.09.375 2.42 1.159 2.42 2.659 0 1.739-1.295 2.59-2.931 2.59-1.296 0-2.284-.613-2.557-.92v.716h-2.148v-2.932h2.114c.068.955.92 1.466 1.67 1.466.614 0 .92-.272.92-.58 0-.374-.238-.613-1.295-.954l-1.056-.34c-1.057-.341-2.25-1.126-2.25-2.557 0-1.739 1.534-2.591 2.829-2.591 1.364 0 2.011.375 2.352.75V9.26h2.148v2.625H46.04c-.034-.716-.716-1.023-1.432-1.023-.58.034-.818.273-.818.614Zm17.522-.068h-.75l-1.875 6.306H56.2l-1.16-3.443-1.056 3.443H51.46l-2.08-6.306h-.75V9.26h4.398v2.148h-1.09l1.159 3.34 1.465-5.488h1.364l1.841 5.489.989-3.341H57.63V9.26h3.681v2.148Zm7.773 2.08v.545H64.04c-.137 1.636.477 2.113 1.397 2.113.784 0 1.364-.511 1.364-1.33h2.181c-.034 1.433-.818 3.069-3.681 3.069-2.898 0-4.227-2.08-4.227-4.398 0-2.08 1.397-4.295 4.193-4.295 2.659 0 3.818 1.84 3.818 4.295Zm8.318-.035V14h-5.046c-.136 1.636.478 2.113 1.398 2.113.784 0 1.364-.511 1.364-1.33H77.3c-.034 1.432-.818 3.069-3.681 3.069-2.898 0-4.227-2.08-4.227-4.398 0-2.08 1.397-4.295 4.193-4.295 2.659 0 3.818 1.84 3.818 4.295Zm9.17 4.227H84.05l-2.625-3.443-.852.648v.682h.75v2.147h-3.92v-2.113h.75v-7.5h-1.091V5.954h3.511v6.75l1.773-1.295h-1.091V9.26h4.67v2.148h-.75l-1.84 1.363 2.113 2.762h1.09c.035.034.035 2.147.035 2.147Zm-14.216-5.045h2.762c0-1.193-.784-1.67-1.33-1.67-.682 0-1.398.545-1.432 1.67Zm-8.317 0h2.76c0-1.193-.783-1.67-1.363-1.67-.647.034-1.363.58-1.397 1.67Zm-40.942.034h2.76c0-1.193-.783-1.67-1.363-1.67-.681 0-1.363.545-1.397 1.67Z" fill="#fff"/></svg>