<svg width="116" height="14" viewBox="0 0 116 14" fill="none" xmlns="http://www.w3.org/2000/svg"><path d="M10.41 1.108h1.735v4.928h4.441V1.108h1.319v12.145h-1.319V6.73h-4.441v6.523H10.41V1.108Zm19.258 12.18h.972v-9.75l7.668 9.923V1.143h-.937v7.911L31.16 1.143h-1.492v12.145Zm10.271 0h7.148l.902-1.84s-1.249 1.007-3.678 1.007h-2.498V6.834h1.804c1.006 0 1.423.624 1.423.624V5.654c-.347.347-.486.451-1.423.451h-1.804V1.837h1.075c1.388 0 2.117.729 2.117.729l-.625-1.423H39.94v12.145Zm61.591 0h4.789l1.076-1.458s-.833.66-2.95.66h-1.18V6.764h1.978c1.006 0 1.215.417 1.215.417V5.758c-.278.278-.486.347-1.215.347h-1.978V1.837h1.631c1.527 0 2.221.729 2.221.729l-.625-1.423h-4.927l-.035 12.145Zm-81.994-.035h4.788l1.076-1.457s-.833.659-2.95.659h-1.18v-5.69h1.979c1.006 0 1.214.416 1.214.416V5.723c-.277.278-.486.347-1.214.347H21.27V1.802h1.63c1.527 0 2.221.729 2.221.729l-.624-1.423H19.57l-.034 12.145ZM5.482 1.906H7.01c1.631 0 2.36.73 2.36.73l-.66-1.493H.66L0 2.635s.729-.729 2.36-.729h1.457v11.347h1.735l-.07-11.347Zm45.526 11.486 1.84-3.99 1.873 3.955 5.413-12.249h-1.076l-3.92 8.918-1.32-2.88 2.569-6.038h-.903l-2.151 4.754-2.255-4.754h-1.805l3.088 7.044-.832 1.874-4.026-8.918H45.63l5.378 12.284Zm19.154-6.073c0 3.262 2.568 6.524 6.905 6.524 4.338 0 6.628-2.672 6.628-6.87 0-3.262-2.533-6.212-6.732-6.212-4.06-.034-6.8 2.88-6.8 6.558Zm6.732-5.898c3.296 0 4.996 3.192 4.996 5.69 0 3.123-1.353 5.865-4.684 5.865-3.643 0-5.24-3.123-5.24-5.969 0-3.747 2.638-5.586 4.928-5.586Zm8.224 11.867h1.77V1.802h.797c.451 0 1.562.278 1.562 2.117 0 1.943-1.596 2.29-1.596 2.29v.243c.763 0 1.7.07 1.7 3.54 0 2.394.833 3.435 1.943 3.435s1.596-.764 1.666-.868l-.243-.173a1.029 1.029 0 0 1-.833.45c-.52 0-1.11-.867-1.11-3.157 0-2.325-.625-3.158-2.36-3.435.937-.313 2.36-.798 2.36-2.672 0-1.596-1.25-2.464-2.742-2.464h-2.845l-.07 12.18Zm23.04 0h1.77V1.802h.798c.451 0 1.561.278 1.561 2.117 0 1.943-1.596 2.29-1.596 2.29v.243c.763 0 1.7.07 1.7 3.54 0 2.394.833 3.435 1.943 3.435 1.111 0 1.597-.764 1.666-.868l-.243-.173a1.028 1.028 0 0 1-.833.45c-.52 0-1.11-.867-1.11-3.157 0-2.325-.625-3.158-2.36-3.435.937-.313 2.36-.798 2.36-2.672 0-1.596-1.249-2.464-2.741-2.464h-2.846l-.069 12.18Zm-9.473-4.025c0-2.776-.59-4.06-2.325-4.372l3.366-3.748h-1.145l-3.192 3.574V1.143h-1.735l-.035 12.145h1.77V5.272h.381c.313 0 1.007.417 1.18 1.006.243.73.312 1.84.312 3.297v.486c0 2.394.833 3.435 1.944 3.435 1.11 0 1.596-.763 1.665-.867l-.243-.174a1.028 1.028 0 0 1-.833.451c-.52 0-1.11-.867-1.11-3.158v-.485Zm-31.021 4.025v-6.28l3.366-5.865h-1.11L66.691 6.73l-3.227-5.587h-1.11l3.366 5.864v6.28h1.943Z" fill="#fff"/></svg>