<svg width="86" height="17" viewBox="0 0 86 17" fill="none" xmlns="http://www.w3.org/2000/svg"><path d="M68.61 4.513A7.373 7.373 0 0 0 66.47 3.22a6.594 6.594 0 0 0-2.37-.43c-1.605 0-2.91.515-3.916 1.544-1.006 1.029-1.508 2.362-1.508 4 0 1.584.49 2.89 1.468 3.92.979 1.03 2.214 1.543 3.704 1.543.87 0 1.696-.154 2.481-.46.785-.308 1.54-.773 2.262-1.394v2.696c-.641.461-1.34.807-2.095 1.034a8.518 8.518 0 0 1-2.457.34c-1.122 0-2.161-.184-3.113-.551a7.209 7.209 0 0 1-2.511-1.625 7.213 7.213 0 0 1-1.65-2.48 8.056 8.056 0 0 1-.576-3.044 7.97 7.97 0 0 1 .576-3.032 7.286 7.286 0 0 1 1.67-2.492 7.356 7.356 0 0 1 2.505-1.639c.943-.371 1.962-.556 3.059-.556a8.02 8.02 0 0 1 2.467.376c.782.25 1.54.63 2.276 1.138l-.13 2.406Z" fill="#fff"/><path fill-rule="evenodd" clip-rule="evenodd" d="M24.774 11.27a7.53 7.53 0 0 0 .587-2.958c0-1.036-.196-2.02-.587-2.952a7.786 7.786 0 0 0-4.25-4.176 7.97 7.97 0 0 0-3.004-.571 8.04 8.04 0 0 0-3.018.57 7.775 7.775 0 0 0-2.546 1.666 7.541 7.541 0 0 0-1.705 2.495 7.636 7.636 0 0 0-.58 2.968c0 1.056.193 2.045.58 2.968a7.469 7.469 0 0 0 1.705 2.477 7.827 7.827 0 0 0 2.542 1.67 7.94 7.94 0 0 0 3.022.585c1.044 0 2.04-.194 2.988-.581a8.037 8.037 0 0 0 2.556-1.674 7.505 7.505 0 0 0 1.71-2.487Zm-2.305-5.073a5.6 5.6 0 0 1 .404 2.115c0 .736-.135 1.435-.404 2.101a5.51 5.51 0 0 1-1.169 1.78 5.411 5.411 0 0 1-1.739 1.193 5.17 5.17 0 0 1-2.04.41 5.248 5.248 0 0 1-2.066-.41 5.274 5.274 0 0 1-1.735-1.193 5.437 5.437 0 0 1-1.162-1.775 5.572 5.572 0 0 1-.4-2.106c0-.748.133-1.456.4-2.125a5.299 5.299 0 0 1 1.162-1.774 5.258 5.258 0 0 1 1.74-1.194 5.293 5.293 0 0 1 2.06-.41 5.216 5.216 0 0 1 3.78 1.604 5.482 5.482 0 0 1 1.169 1.784ZM2.236 15.621V9.034h1.373c1.07 0 1.856-.056 2.361-.17a3.58 3.58 0 0 0 1.32-.572c.46-.334.82-.795 1.081-1.383.261-.587.39-1.23.39-1.925 0-.695-.129-1.332-.39-1.91-.261-.578-.621-1.038-1.082-1.38A3.658 3.658 0 0 0 5.97 1.12C5.465 1.002 4.68.943 3.61.943H0V15.62h2.236Zm.762-8.542h-.611V2.99h.611c1.263 0 2.13.16 2.6.481.473.32.708.873.708 1.655 0 .727-.221 1.235-.662 1.524-.44.287-1.323.43-2.646.43Z" fill="#fff"/><path d="M27.482 15.621V.944h2.385v12.542H35.2v2.135h-7.72ZM38.947.944H36.56v14.677h2.387V.944ZM46.502 2.97V15.62h-2.387V2.97h-3.9V.944h10.167V2.97h-3.88ZM54.016.944h-2.385v14.677h2.385V.944Z" fill="#fff"/><path fill-rule="evenodd" clip-rule="evenodd" d="M85.413 11.27A7.53 7.53 0 0 0 86 8.312c0-1.036-.195-2.02-.587-2.952a7.786 7.786 0 0 0-4.25-4.176A7.97 7.97 0 0 0 78.16.613c-1.062 0-2.068.19-3.018.57a7.774 7.774 0 0 0-2.546 1.666 7.54 7.54 0 0 0-1.705 2.495 7.637 7.637 0 0 0-.582 2.968c0 1.056.194 2.045.582 2.968a7.468 7.468 0 0 0 1.705 2.477 7.811 7.811 0 0 0 2.541 1.67 7.94 7.94 0 0 0 3.023.585c1.043 0 2.04-.194 2.988-.581a8.037 8.037 0 0 0 2.556-1.674 7.505 7.505 0 0 0 1.709-2.487Zm-2.305-5.073a5.6 5.6 0 0 1 .406 2.115 5.512 5.512 0 0 1-1.574 3.88 5.412 5.412 0 0 1-1.74 1.194 5.17 5.17 0 0 1-2.04.41c-.73 0-1.417-.136-2.065-.41a5.272 5.272 0 0 1-1.736-1.193 5.462 5.462 0 0 1-1.562-3.88c0-.749.133-1.457.4-2.126a5.322 5.322 0 0 1 1.162-1.774 5.257 5.257 0 0 1 1.74-1.194 5.293 5.293 0 0 1 2.06-.41 5.215 5.215 0 0 1 3.78 1.604 5.483 5.483 0 0 1 1.17 1.784Z" fill="#fff"/></svg>