<svg width="64" height="21" viewBox="0 0 64 21" fill="none" xmlns="http://www.w3.org/2000/svg"><path d="M30.535.538s-.72.015-1.138.008c-.017.175-.218 1.762-.391 3.038-.199 1.181-1.775 9.944-2.31 12.567-.14.791-.574 3.029-.616 3.253a21.11 21.11 0 0 1-1.48.13c-.053.001-.139.018-.18.018v.455c.047-.002.298.017.476.01.426-.014 1.634-.072 1.863-.072.87 0 1.45.058 2.253.074.011 0 .232-.001.33-.013v-.46l-.208-.002c-.227.008-1.064-.057-1.488-.114.05-.3.79-4.838 1.144-6.653.674-3.36 1.141-5.74 1.141-5.74l.126.296 5.33 12.703.972.005s.556-1.375 1.216-2.918l.132-.305c.691-1.602 4.12-9.734 4.12-9.734s.033.147.087.409c.327 1.593 1.431 7.337 1.667 8.723.11.712.214 1.435.275 1.86.088.599.147 1.186.147 1.355-.108.005-1.194.103-1.605.12a2.228 2.228 0 0 0-.175.005v.462c.147 0 .29.006.433.003.839-.016 1.645-.082 2.484-.081.943 0 2.471.083 3.451.09.11 0 .307-.01.307-.01v-.467c-.056 0-.303-.013-.394-.02-.438-.034-1.178-.103-1.366-.115 0 0-.121-.671-.281-1.446-.64-3.1-2.463-12.523-2.742-14.841-.095-.797-.365-2.586-.365-2.586h-1.096l-1.07 3.071c-.349 1.001-.822 2.237-1.183 3.185a169.51 169.51 0 0 1-3.78 9.046S32.375 5.714 32.15 5.128c-.227-.586-1.615-4.59-1.615-4.59ZM.009.542l.01 1.07L0 4.222l.283-.008.03-2.32S1.86 1.88 2.061 1.88l2.889.001 1.864.01.003 16.131v1.393l-.039.006c-.248.019-1.203.077-1.591.091-.087.003-.143.005-.152.004l.002.472c.07.004.259.008.283.007.918-.011 2.16-.091 3.04-.09.895 0 2.153.087 2.933.096.077 0 .168-.007.242-.007v-.443l-.096.001a43.318 43.318 0 0 1-1.763-.108l-.032-1.284.007-16.271 1.42-.004 3.703.003 1.236.017c.008.088.07 1.263.07 1.295-.003.085.046.96.044 1.176l.293.003-.02-2.638.013-1.186c-1.089.03-3.863.067-8.168.064C4.551.617.993.586.01.542ZM17.25.546l.005.462c.146.008 1.005.084 1.214.094.167.02.4.042.566.058l.005 1.571c.028 3.818.004 12.257-.007 15.243l-.006 1.42c-.105.03-.342.043-.598.06-.22.015-1.004.081-1.18.085V20c.073 0 .206.015.282.014.889 0 2.124-.11 3.034-.109.92 0 2.148.113 2.872.113h-.002c.063.001.212-.015.275-.015v-.462h-.063c-.028-.006-.962-.045-1.19-.069-.118-.008-.633-.052-.64-.07a8.3 8.3 0 0 1-.004-.377c.003-.218.003-.582.003-.976l.013-15.375.002-1.486c.2-.013 1.023-.098 1.317-.124.012-.002.402-.024.562-.034V.55c-1.006 0-2.336.078-3.317.078-1.026-.001-2.29-.082-3.143-.082Zm46.53.013L63.48.56c-.672.003-2.394.016-4.407.027-1.236.007-2.203.017-3.476.016-.893.01-2.143.045-2.915.044-1.232-.002-2.238-.078-2.785-.08-.26-.002-.404.008-.476.004.005.006.005.456.005.456.047.008.142.019.231.017.31.02.889.067 1.183.106.058.01.158.027.434.058-.002.102.013 1.26.011 1.955l-.006 15.02c0 .024-.033 1.157-.033 1.248-.488.084-1.427.136-1.747.137h-.095v.457c.046 0 .255.008.374.008.517 0 1.849-.082 3.209-.083.953-.001 2.002.035 3.064.05 1.308.018 2.631.019 3.82.036 1.961.027 3.55.03 4.067.03 0 0 .063-3.637.063-3.93l-.283.003c0 .31-.115 1.462-.12 1.512-.036.434-.075.888-.105 1.112 0 0-.139.011-.206.01-.322-.006-1.35.031-1.373.031l-4.59.002-3.224-.054-.021-.894-.002-6.943c.575-.02 1.453-.05 1.987-.05.454.002 1.524-.024 2.123-.023 1.455.003 2.748.012 2.852.015.24.007.685.022.854.033.006.06.026.156.028.183.087.532.134.9.192 1.422.01.047.013.092.02.135h.33s.01-.186.005-.303c-.006-.409-.032-1.225-.032-2.13-.003-.627.034-1.586.038-2.047.003-.125-.012-.214-.012-.25l-.303.006c-.002.1-.026.247-.026.247-.026.344-.123.783-.201 1.247-.022.057-.037.138-.037.138a25.12 25.12 0 0 1-1.068.062l-1.438.038-5.31-.02.008-7.656s.675-.024.863-.023c.766 0 2.01-.007 3.28-.005 1.857.002 3.66.014 3.665.017.01.005.56.013.57.022.014.01.701.03.87.036 0 0 .013.057.022.13.075.806.138 1.765.166 2.105l.002.136.284-.001c0-.497-.026-2.02-.03-2.988-.003-.311.004-.564.004-.709V.56Z" fill="#fff"/></svg>