<svg width="150" height="24" viewBox="0 0 150 24" fill="none" xmlns="http://www.w3.org/2000/svg"><path d="M8.35 7.886v8.13c1.099-.593 1.868-1.626 2.241-2.79l.088.044c-.242 2.9-2.22 5.8-5.295 5.8C2.285 19.07 0 16.763 0 13.072c0-2.769 1.802-4.505 4.11-6.065a4.029 4.029 0 0 0-1.034-.132C1.494 6.875.571 7.952.571 9.05H.44C.417 8.896.417 8.743.417 8.59c0-1.956 1.033-4.329 3.538-4.329 1.604 0 2.835 1.472 4.703 1.472.747 0 1.67-.351 2.043-1.164h.066c-.022 1.428-.461 2.9-2.417 3.318Zm1.187 8.328c-1.1 1.164-2.286 2.154-3.824 2.154-2.856 0-5.054-2.242-5.054-5.494 0-1.912.791-2.944 1.67-4.153h-.088c-.549.55-2 1.933-2 4.285 0 3.604 2.264 5.823 5.23 5.823 2.066 0 3.472-1.428 4.11-2.593l-.044-.022Zm.878-10.657c-.373.703-1.164 1.604-2.768 1.604-1.604 0-3.076-1.1-4.373-1.1-1.187 0-2 .792-2.307 1.385l.022.045c.417-.418 1.054-.836 2.087-.836 1.714 0 2.813 1.055 4.549 1.055 1.846 0 2.68-1.209 2.834-2.131l-.044-.022ZM4.307 7.073c-1.121 1.165-2.154 2.44-2.154 4.922 0 1.362.462 2.769 1.494 3.648l.637-.33V9.424l-.593.308-.11-.22 3.077-1.67c-.835-.176-1.582-.55-2.351-.769Zm3.801.857c-.154.022-.307.022-.483.022-.308 0-.594-.022-.88-.088v6.416l-2.878 1.56c.593.44 1.319.704 2.241.704.747 0 1.407-.154 2-.418V7.93ZM4.944 9.05l-.418.242v5.89l.418-.22V9.05Zm12.635.836v7.602c0 2.11-1.868 3.538-3.955 3.956l-.044-.088c1.033-.506 1.626-1.538 1.626-2.637v-7.867l-1.187-1.076-.461.505v6.13l.66.594v.044l-1.78 1.934-2.044-1.868v-.088l.791-.835V6.48l2.33-2.483.043.022v5.889l1.912-2.066 2 1.802.373-.396.176.155-.44.483Zm-6.153 7.185v-.044l.462-.462V6.106l-.462.484v9.756l-.703.703v.044l1.714 1.538.307-.352-1.318-1.208Zm4.483-6.57L14.48 9.27l-.307.329 1.274 1.143v7.91c0 .527-.11 1.077-.307 1.384l.022.023c.55-.396.747-.99.747-1.758V10.5Zm5.164 3.801v1.12l2.131 1.67 1.23-1.318.177.176-2.857 3.054-2.9-2.329-.44.462-.176-.176.506-.527v-5.56l4.153-3.032 2.175 3.516-4 2.944Zm-1.627 1.934v-5.582l-.46.33v5.472l2.724 2.22.352-.374-2.616-2.066Zm1.67-6.768-.043.022v4.505l1.955-1.429-1.911-3.098Zm.572-.44-.395.286 1.933 3.098.396-.285-1.934-3.098Zm17.707 9.955-3.054-2.637-2.33 2.637-3.164-2.726v-4.306h-.615c-.55 0-.835.352-.967.769H29.2a3.494 3.494 0 0 1-.11-.835c0-.571.155-2.065 1.759-2.065V6.04c0-.725-.857-1.01-.857-1.978 0-1.252 1.186-2.482 3.362-3.252l.088.066c-.791.462-1.209.901-1.209 1.846 0 1.45 1.406 1.077 1.406 3.362v.879L36.21 4.26l2.703 2.659 2.55-2.659 2.46 2.417v8.13l-4.527 4.176Zm-7.844-3.077V11.27h-1.23c-.638 0-.924.417-.968.791l.022.022c.22-.241.44-.373.945-.373h.769v4.438l2.9 2.506.33-.396-2.768-2.352Zm0-10.086c0-.9-.791-1.208-.791-1.78 0-.79.307-1.45.79-2.065l-.043-.022c-.66.506-1.274 1.319-1.274 2.11 0 .79.856 1.164.856 1.868V9.82h.462v-4Zm4.636 2.198-1.67-1.626-.879.9v7.78l2 1.691.55-.615v-8.13Zm.703 7.844V7.71l-1.867-1.846-.352.352 1.758 1.692v8.196l2.966 2.571.352-.33-2.857-2.483Zm4.263-8.13L39.77 6.413l-.79.814v7.822l2.153 1.89.021-.022V7.732Zm.703-.307-1.604-1.56-.33.351 1.473 1.406v9.185l.461-.44V7.426Zm9.337 11.558-2.087-1.89-1.868 1.89-2.285-2.022-.308.33-.176-.176.396-.418V10.81l4.13-2.989 2.374 1.846.418-.44.176.176-.484.506v6.087l1.165 1.076.373-.396.176.154-2 2.154Zm-5.625-2.44v-5.932l-.461.33v5.822l2.11 1.89.35-.351-1.999-1.758Zm3.538-5.778-1.802-1.407-.066.044v6.395l1.494 1.296.374-.374v-5.955Zm.703 5.976v-6.306l-1.868-1.516-.44.307 1.847 1.45v6.285l1.846 1.67.33-.352-1.715-1.538Zm7.779-4.922h2.263v4.702l-3.494 2.462c-.462-.528-1.12-.901-1.934-.901-.659 0-1.187.22-1.89.813l-.11-.044 2.99-4.351h-1.847v-4.087l3.67-2.55c.44.353.77.55 1.34.55.44 0 1.077-.088 1.56-.483l.089.044-2.637 3.845Zm-2.461 5.625c-.638 0-1.143.22-1.583.528v.044a2.532 2.532 0 0 1 1.033-.198 2.55 2.55 0 0 1 1.824.857l.506-.373c-.418-.484-.923-.858-1.78-.858Zm2.35-3.691h-1.23l-2.571 3.714.022.044c.637-.462 1.252-.77 2-.77.659 0 1.34.308 1.757.835l.023-.021v-3.802Zm-3.208 0v-3.538l-.461.33v3.692h1.78l.351-.484h-1.67Zm4.593-4.307c-.461.33-.725.505-1.494.505-.44 0-.967-.197-1.385-.637l-.043.022v3.208h.835l2.11-3.076-.023-.022Zm-1.055-.198c-.395 0-.9-.197-1.23-.637l-.55.373c.418.506.813.726 1.428.726.396 0 .967-.11 1.56-.616l.022-.066c-.373.155-.834.22-1.23.22Zm.374 3.78h-1.429l-.33.461h1.297v4.263l.462-.33v-4.394Zm9.25-3.142v7.602c0 2.11-1.867 3.538-3.955 3.956l-.043-.088c1.033-.506 1.626-1.538 1.626-2.637v-7.867l-1.187-1.076-.461.505v6.13l.659.594v.044l-1.78 1.934-2.043-1.868v-.088l.79-.835V6.48l2.33-2.483.044.022v5.889l1.912-2.066 2 1.802.373-.396.176.155-.44.483ZM61.28 17.07v-.044l.461-.462V6.106l-.46.483v9.757l-.704.703v.044l1.714 1.538.307-.352-1.318-1.208Zm4.483-6.57-1.429-1.23-.307.329 1.274 1.143v7.91c0 .527-.11 1.077-.307 1.384l.022.023c.55-.396.747-.99.747-1.758V10.5Zm5.669 8.482-1.89-1.736-.44.461-.175-.176.505-.55v-6.35l-.923-.878-.351.396-.176-.176 1.977-2.154 1.758 1.582.44-.483.197.154-.549.593v6.416l1.055.99.484-.506.175.176-2.087 2.24Zm-1.296-2.154v-6.548l-1.143-1.055-.308.352.99.945v6.526l1.757 1.582.33-.352-1.626-1.45Zm.659-9.185-1.802-1.647 1.648-1.758 1.802 1.647-1.648 1.758Zm-1.12-2-.33.33 1.428 1.34.33-.373-1.429-1.296Zm11.048 13.338-1.911-1.735V10.83l-1.165-1.054-.615.659v5.933l.68.637v.088l-1.801 1.89-2.044-1.868v-.066l.792-.835v-5.537l-1.033-.945-.418.461-.175-.176 1.999-2.175 2 1.78v.44l2.087-2.22L81.073 9.6l.44-.462.198.176-.528.55v6.284l.99.923.483-.528.175.176-2.109 2.264Zm-5.8-1.911v-.044c0 .044.439-.44.439-.44v-6.24l-1.253-1.143-.308.33 1.1 1.01v5.801l-.682.704v.043l1.692 1.539.351-.374-1.34-1.186Zm4.591-.176v-6.438l-1.362-1.23-.351.373 1.252 1.12v6.395l1.648 1.538.352-.374-1.539-1.384Zm7.406 6.043c-.725-.791-1.23-1.12-1.912-1.12-.725 0-1.56.285-2.417.746l-.066-.065 3.033-3.516-2.154-1.714-.417.44-.176-.154.483-.528V10.81l4.175-2.989 2.33 1.846.395-.44.176.176-.462.506v7.515c0 1.143.637 1.099.637 1.955 0 .989-1.428 1.912-3.625 3.56Zm-2.923-6.087v-6.218l-.461.33v6.086l2.175 1.758.33-.396-2.044-1.56Zm1.538 4.395c-.725 0-1.384.22-1.999.637v.044c.395-.154.835-.351 1.582-.351.681 0 1.252.373 1.824 1.032l.44-.351c-.55-.637-1.21-1.011-1.847-1.011Zm2.681-2.11c-.549-.351-.68-.725-.68-1.67v-.395l-3.649 4.218.022.022c.703-.417 1.34-.724 2.374-.724.879 0 1.472.35 2.153.922.418-.351.703-.703.703-1.252 0-.44-.374-.769-.923-1.12Zm-.68-8.371L85.71 9.335l-.044.044v6.746l1.407 1.099.461-.527v-5.934Zm1.34 8.064c-.572-.44-.638-.813-.638-1.758v-6.68l-1.846-1.494-.417.286 1.802 1.428v6.767c0 .945.044 1.21.637 1.605.527.351.945.724.945 1.23 0 .132-.022.351-.022.351l.022.023a.773.773 0 0 0 .242-.572c0-.483-.242-.813-.726-1.186Zm5.273.154L92.127 17.4l-.418.46-.176-.175.484-.527V9.468h-1.275l-.044-.044.77-1.143h.548V6.81l2.33-2.483.043.044v3.911h1.758l.045.045-.77 1.142H94.39v6.658l1.208.923.462-.505.175.176-2.087 2.263ZM92.72 6.436l-.462.505v1.34h.462V6.436Zm0 10.503V9.468h-.462v7.735l1.868 1.45.33-.351-1.736-1.363Zm10.701-6.834v6.153l-3.714 2.747-2.79-2.11-.33.374-.176-.176.396-.44v-6.02l3.889-2.791 2.593 2.022.417-.44.176.176-.461.505Zm-5.91 6.329v-6l-.462.33v5.911l2.636 2.022.418-.307-2.593-1.956Zm3.537-5.604-1.846-1.45-.022.022v6.548l1.868 1.406V10.83Zm.703-.395-2.043-1.582-.418.307 2 1.538v6.834l.461-.351v-6.746Zm10.064 8.548-1.912-1.736V10.83l-1.164-1.054-.616.659v5.933l.681.637v.088l-1.801 1.89-2.044-1.868v-.066l.791-.835v-5.537l-1.033-.945-.417.461-.176-.176 2-2.175 1.999 1.78v.44l2.088-2.22 1.955 1.758.44-.462.198.176-.528.55v6.284l.989.923.483-.528.176.176-2.109 2.264Zm-5.801-1.912v-.044c0 .044.439-.44.439-.44v-6.24l-1.252-1.143-.308.33 1.099 1.01v5.801l-.681.704v.043l1.692 1.539.352-.374-1.341-1.186Zm4.592-.176v-6.438l-1.362-1.23-.352.373 1.253 1.12v6.395l1.648 1.538.351-.374-1.538-1.384Zm14.784 2.088c-.616-.66-.835-.88-1.561-1.077v4.307l-.044.021-.879-.79-2.549 2.35-.044-.021v-5.911c-.769.176-1.582.571-2.373 1.362l-.044-.022c.154-1.692.989-2.944 2.417-3.428V11.49h-.461c-.638 0-.989.33-1.297.922h-.066c-.066-.197-.11-.505-.11-1.01 0-.923.682-1.89 1.802-1.89h.132V7.14l-.901-.813-.439.44-.154-.154 2.219-2.352 2.065 1.89v2l.484-.528V5.095h.242v2.308l2.922-3.143 2.483 2.264v9.558l-3.844 2.9Zm-5.076-1.934c-.901.175-1.538.725-1.955 1.45l.021.044c.616-.527 1.187-.769 1.934-.945v-.55Zm.703-6.306h-1.208c-.835 0-1.165.527-1.187 1.142l.022.022c.264-.44.527-.593 1.055-.659h.857v11.976l.461-.44V10.743Zm0-3.956-1.099-1.01-.351.373.989.879v2.483h.461V6.787Zm2.571 1.253-.483.505v12.723l.483.44V8.04Zm2.879-.506-1.297-1.186-1.34 1.45v7.735c1.142.11 1.933.44 2.615 1.186l.022-.021V7.534Zm-2.637 9.515v.571c.747.176 1.054.396 1.582 1.01l.505-.395c-.527-.659-1.055-1.054-2.087-1.186Zm3.34-9.866-1.495-1.385-.351.374 1.384 1.274v10.218l.462-.352V7.184Zm9.734 2.922v6.153l-3.714 2.747-2.79-2.11-.33.374-.176-.176.395-.44v-6.02l3.89-2.791 2.593 2.022.417-.44.176.176-.461.505Zm-5.911 6.329v-6l-.462.33v5.911l2.637 2.022.418-.307-2.593-1.956Zm3.538-5.604-1.846-1.45-.022.022v6.548l1.868 1.406V10.83Zm.703-.395-2.044-1.582-.417.307 2 1.538v6.834l.461-.351v-6.746Zm6.768 1.384h2.263v4.702l-3.494 2.462c-.461-.528-1.12-.901-1.933-.901-.66 0-1.187.22-1.89.813l-.11-.044 2.988-4.351h-1.846v-4.087l3.67-2.55c.44.353.769.55 1.341.55.439 0 1.076-.088 1.56-.483l.088.044-2.637 3.845Zm-2.461 5.625c-.637 0-1.143.22-1.582.528v.044a2.53 2.53 0 0 1 1.033-.198c.505 0 1.296.242 1.823.857l.506-.373c-.418-.484-.923-.858-1.78-.858Zm2.351-3.691h-1.23l-2.571 3.714.022.044c.637-.462 1.252-.77 1.999-.77.659 0 1.34.308 1.758.835l.022-.021v-3.802Zm-3.208 0v-3.538l-.462.33v3.692h1.78l.352-.484h-1.67Zm4.592-4.307c-.461.33-.725.505-1.494.505-.44 0-.967-.197-1.384-.637l-.045.022v3.208h.835l2.11-3.076-.022-.022Zm-1.055-.198c-.395 0-.9-.197-1.23-.637l-.549.373c.417.506.813.726 1.428.726.396 0 .967-.11 1.56-.616l.022-.066c-.373.155-.835.22-1.231.22Zm.374 3.78h-1.428l-.33.461h1.297v4.263l.461-.33v-4.394Zm5.318 5.955-2.022-1.582-.417.46-.176-.175.483-.527V9.468h-1.274l-.044-.044.769-1.143h.549V6.81l2.329-2.483.044.044v3.911h1.758l.044.045-.769 1.142h-1.033v6.658l1.209.923.461-.505.176.176-2.087 2.263Zm-1.429-12.547-.461.505v1.34h.461V6.436Zm0 10.503V9.468h-.461v7.735l1.868 1.45.329-.351-1.736-1.363Z" fill="#fff"/></svg>