<svg width="135" height="13" viewBox="0 0 135 13" fill="none" xmlns="http://www.w3.org/2000/svg"><path d="M134.28 10.45c-.393 0-.72.328-.72.77s.327.77.72.77c.393 0 .72-.328.72-.77s-.327-.77-.72-.77Zm-26.054 1.49h3.305v-.294l-.359-.083c-.328-.081-.475-.261-.475-.72v-4.45h.769c.475 0 .72.114.753 1.112l.082 2.095c.065 1.882.605 2.405 1.522 2.405.933 0 1.178-.638 1.178-1.538v-.376h-.344v.278c0 .606-.081 1.03-.311 1.03-.212 0-.229-.163-.278-.916l-.098-1.44c-.131-1.93-.376-2.602-1.8-2.864 1.358-.36 2.193-1.358 2.193-2.782 0-1.85-1.457-2.733-2.848-2.733h-5.58v.295l.311.065c.589.131.605.442.605 1.768v6.513c0 1.457-.409 2.16-1.342 2.16-.834 0-1.293-.409-1.293-1.996V1.728c0-.458.147-.59.507-.671l.442-.098V.664h-3.42v.295l.36.098c.327.098.442.23.442.687v7.61c0 1.719.998 2.668 2.52 2.668s2.275-.95 2.275-2.717V2.202c0-.883.18-1.194.9-1.194.573 0 .819.196.819.736v9.1c0 .458-.148.621-.475.703l-.36.098v.295Zm21.962-10.196c0-.458.148-.605.475-.67l.442-.1v-.31h-3.404v.295l.36.098c.327.098.474.23.474.687v9.165c0 .442-.179.687-.687.687-.589 0-.671-.196-.884-1.162L124.87.631h-.655l-1.996 9.492c-.23 1.064-.344 1.31-.786 1.44l-.279.082v.295h2.341v-.294l-.344-.066c-.491-.098-.622-.36-.376-1.604l1.178-6.072 1.293 6.432c.196.933.18 1.113-.524 1.244l-.343.066v.294h8.673V8.209h-.31c-.164 1.718-.508 3.338-1.899 3.338h-.655V1.744Zm-5.106 7.152v-.442h-2.209l-.065.442h2.274ZM115.95 1.94v7.822c0 1.179 0 1.735-.589 1.833l-.294.05v.294h2.405v-.294c-1.047-.148-1.047-.508-1.047-1.784v-7.43l-.393-.36 4.01 9.868h.687v-9.1c0-1.341 0-1.636.655-1.816l.229-.065V.664h-2.471v.295l.278.065c.834.147.834.475.834 1.719v5.695l.164-.05-3.044-7.724h-2.34v.295l.229.065c.262.082.409.377.687.917Zm-5.253-.884h.655c.654 0 1.26.425 1.26 2.553 0 2.177-.458 2.39-1.375 2.39h-.54V1.056Zm-10.9 5.139c0 4.73-.392 5.4-1.243 5.4-.851 0-1.228-.67-1.228-5.368 0-4.55.41-5.204 1.228-5.204.85 0 1.244.655 1.244 5.172Zm1.785.098c0-3.126-.999-5.712-3.028-5.712-2.046 0-3.012 2.586-3.012 5.712 0 3.142.999 5.728 3.012 5.728 2.078 0 3.028-2.586 3.028-5.728Zm-7.005-4.55c0-.458.115-.605.442-.687l.36-.098V.664H91.99v.295l.41.098c.326.082.507.196.507.67V9.6c0 1.096-.099 1.98-.917 1.98-.524 0-.916-.41-.9-.704.049-.507.9-.474.966-1.293.049-.589-.328-.834-.671-.883-.508-.066-1.13.36-1.146 1.21-.017 1.097.704 2.095 1.931 2.095 1.359 0 2.406-.916 2.406-2.667V1.744Zm-54.661 0c0-.458.147-.605.474-.67l.442-.1v-.31h-3.404v.295l.36.098c.328.098.475.23.475.687v9.165c0 .442-.18.687-.688.687-.589 0-.687-.196-.9-1.162L34.58.631h-.654l-1.997 9.492c-.229 1.064-.343 1.31-.785 1.44l-.278.082v.295h2.34v-.294l-.344-.066c-.49-.098-.622-.36-.376-1.604l1.178-6.104 1.293 6.464c.18.933.18 1.113-.524 1.244l-.343.066v.294h8.69V8.209h-.311c-.164 1.718-.508 3.338-1.899 3.338h-.654V1.744Zm45.561-.687h.36c1.016 0 1.36 1.62 1.474 3.338h.31V.664h-5.94v3.731h.31c.115-1.718.46-3.338 1.474-3.338h.36v9.786c0 .459-.147.622-.475.704l-.425.098v.295h3.535v-.294l-.508-.115c-.31-.082-.475-.18-.475-.688V1.057ZM78 6.277l.507.017c.736.016.949.295 1.097 2.078h.31v-4.55h-.31c-.18 1.425-.377 2.03-1.08 2.046l-.524.017V1.057h1.129c1.26 0 1.538 1.587 1.718 3.338h.311V.664h-5.646v.295l.36.098c.376.098.475.327.475.704v9.082c0 .459-.147.622-.475.704l-.36.098v.295h5.81V8.209h-.311c-.197 1.702-.41 3.338-1.882 3.338h-1.13v-5.27Zm-6.17 0 .507.017c.736.016.95.295 1.097 2.078h.31v-4.55h-.31c-.18 1.425-.377 2.03-1.08 2.046l-.524.017V1.057h1.129c1.26 0 1.538 1.62 1.718 3.338h.311V.664h-5.81v.295l.524.098c.377.098.475.327.475.704v9.082c0 .459-.148.622-.475.704l-.36.098v.295h5.81V8.209h-.31c-.197 1.702-.41 3.338-1.883 3.338h-1.13v-5.27Zm-6.727-5.22h.491c.655 0 1.26.425 1.26 2.553 0 2.144-.458 2.39-1.374 2.39h-.377V1.056Zm-2.47 10.883h3.305v-.294l-.36-.083c-.327-.081-.475-.261-.475-.72v-4.45h.606c.475 0 .72.196.753 1.112l.082 2.095c.065 1.882.605 2.405 1.522 2.405.932 0 1.178-.638 1.178-1.538v-.376h-.344v.278c0 .606-.082 1.03-.31 1.03-.213 0-.23-.163-.279-.916l-.098-1.44c-.131-1.98-.393-2.602-1.8-2.864 1.358-.36 2.193-1.358 2.193-2.782 0-1.85-1.457-2.733-2.848-2.733h-3.126v.295l.36.098c.328.098.475.23.475.687v9.1c0 .458-.147.621-.475.703l-.36.098v.295ZM60.126 1.057h.36c1.015 0 1.359 1.62 1.473 3.338h.311V.664h-5.94v3.731h.31c.115-1.718.459-3.338 1.473-3.338h.36v9.786c0 .459-.147.622-.474.704l-.426.098v.295h3.453v-.294l-.425-.099c-.426-.098-.475-.425-.475-.704V1.057Zm-3.78 7.953c0-3.354-3.682-4.238-3.682-6.677 0-.523.196-1.309 1.014-1.309 1.178 0 1.62 1.522 1.817 3.371h.31V.664h-.196c-.082.36-.229.524-.441.524-.377 0-.573-.59-1.473-.59-1.391 0-2.34 1.163-2.34 2.684 0 2.766 3.682 3.928 3.682 6.481 0 1.162-.54 1.817-1.277 1.817-1.096 0-1.817-1.293-2.013-3.371h-.31v3.73h.196c.163-.54.376-.588.556-.588.311 0 .638.654 1.587.654 1.457 0 2.57-1.26 2.57-2.995Zm-10.72-7.266c0-.458.148-.605.475-.67l.442-.1v-.31H43.14v.295l.36.098c.327.098.474.23.474.687v9.1c0 .458-.147.621-.474.703l-.36.098v.295h5.351V8.209h-.31c-.164 1.718-.508 3.338-1.899 3.338h-.655V1.744ZM34.793 8.896v-.442h-2.209l-.066.442h2.275Zm-9.459 3.077h.671l1.522-8.052h-.23l1.67 8.052h.59l1.996-9.492c.213-.999.327-1.342.72-1.44l.311-.082V.664h-2.308v.295l.344.065c.491.098.605.393.377 1.604l-1.293 6.366h.196l-1.31-6.71c-.13-.638-.212-1.162.328-1.26l.36-.065V.664h-3.159v.295l.213.049c.328.081.377.278.508.9l.507 2.438-.098-1.473-1.13 5.957h.148L24.94 2.285c-.147-.67-.196-1.178.327-1.276l.246-.05V.665H22.29v.295l.31.081c.295.082.46.23.656 1.13l2.078 9.803Zm-8.74-5.696.508.017c.736.016.95.295 1.096 2.078h.311v-4.55h-.31c-.18 1.425-.377 2.03-1.08 2.046l-.524.017V1.057h1.129c1.26 0 1.538 1.62 1.718 3.338h.311V.664h-5.646v.295l.36.098c.377.098.475.327.475.704v9.082c0 .459-.148.622-.475.704l-.36.098v.295h5.81V8.209h-.311c-.196 1.702-.41 3.338-1.882 3.338h-1.13v-5.27ZM6.302 11.94h3.355v-.294l-.377-.083c-.294-.065-.49-.261-.49-.72V6.376h2.47v4.467c0 .459-.196.655-.49.72l-.377.082v.295h3.355v-.294l-.36-.099c-.327-.082-.475-.262-.475-.72V1.744c0-.458.148-.605.475-.687l.36-.098V.664h-3.355v.295l.377.098c.278.082.49.196.49.67v4.207H8.79V1.728c0-.458.18-.59.49-.671l.377-.098V.664H6.3v.295l.36.098c.327.098.474.23.474.687v9.1c0 .458-.147.621-.474.703l-.36.098v.295ZM3.797 1.057h.36c1.014 0 1.358 1.62 1.473 3.338h.31V.664H0v3.731h.31c.115-1.718.46-3.338 1.474-3.338h.36v9.786c0 .459-.147.622-.475.704l-.425.098v.295h3.535v-.294l-.508-.115c-.31-.082-.474-.18-.474-.688V1.057Z" fill="#fff"/></svg>