<svg width="48" height="48" viewBox="0 0 48 48" fill="none" xmlns="http://www.w3.org/2000/svg"><rect width="48" height="48" rx="24" fill="#CDE8EA"/><path fill-rule="evenodd" clip-rule="evenodd" d="M19.25 18a4.75 4.75 0 1 1 9.5 0 4.75 4.75 0 0 1-9.5 0ZM24 14.75a3.25 3.25 0 1 0 0 6.5 3.25 3.25 0 0 0 0-6.5Z" fill="#003B4A"/><path fill-rule="evenodd" clip-rule="evenodd" d="M24 21.25a.75.75 0 0 1 .75.75v9a.75.75 0 0 1-1.5 0v-9a.75.75 0 0 1 .75-.75Z" fill="#003B4A"/><path fill-rule="evenodd" clip-rule="evenodd" d="M17.376 27.584A.75.75 0 0 1 18 27.25h2a.75.75 0 0 1 0 1.5h-1.599l-3 4.5H32.6l-3-4.5H28a.75.75 0 0 1 0-1.5h2a.75.75 0 0 1 .624.334l4 6A.75.75 0 0 1 34 34.75H14a.75.75 0 0 1-.624-1.166l4-6Z" fill="#003B4A"/></svg>