<svg width="48" height="48" viewBox="0 0 48 48" fill="none" xmlns="http://www.w3.org/2000/svg"><rect width="48" height="48" rx="24" fill="#CDE8EA"/><path fill-rule="evenodd" clip-rule="evenodd" d="M13.75 21.5a.75.75 0 0 1 .75-.75h19a.75.75 0 0 1 .75.75V32a1.75 1.75 0 0 1-1.75 1.75h-17A1.75 1.75 0 0 1 13.75 32V21.5Zm1.5.75V32c0 .138.112.25.25.25h17a.25.25 0 0 0 .25-.25v-9.75h-17.5Z" fill="#003B4A"/><path fill-rule="evenodd" clip-rule="evenodd" d="M15.5 16.25a.25.25 0 0 0-.25.25v4.25h17.5V16.5a.25.25 0 0 0-.25-.25h-17Zm-1.75.25c0-.966.784-1.75 1.75-1.75h17c.967 0 1.75.784 1.75 1.75v5a.75.75 0 0 1-.75.75h-19a.75.75 0 0 1-.75-.75v-5Z" fill="#003B4A"/><path fill-rule="evenodd" clip-rule="evenodd" d="M20 13.25a.75.75 0 0 1 .75.75v4a.75.75 0 0 1-1.5 0v-4a.75.75 0 0 1 .75-.75ZM28 13.25a.75.75 0 0 1 .75.75v4a.75.75 0 0 1-1.5 0v-4a.75.75 0 0 1 .75-.75ZM25.25 29a.75.75 0 0 1 .75-.75h3a.75.75 0 0 1 0 1.5h-3a.75.75 0 0 1-.75-.75ZM18.25 29a.75.75 0 0 1 .75-.75h3a.75.75 0 0 1 0 1.5h-3a.75.75 0 0 1-.75-.75ZM25.25 25a.75.75 0 0 1 .75-.75h3a.75.75 0 0 1 0 1.5h-3a.75.75 0 0 1-.75-.75ZM18.25 25a.75.75 0 0 1 .75-.75h3a.75.75 0 0 1 0 1.5h-3a.75.75 0 0 1-.75-.75Z" fill="#003B4A"/></svg>