<svg width="48" height="48" viewBox="0 0 48 48" fill="none" xmlns="http://www.w3.org/2000/svg"><rect width="48" height="48" rx="24" fill="#CDE8EA"/><path fill-rule="evenodd" clip-rule="evenodd" d="M13.642 20.34a.75.75 0 0 1 .767.031L24 26.606l9.591-6.235A.75.75 0 0 1 34.75 21v10.91c0 .953-.723 1.84-1.75 1.84H15c-1.027 0-1.75-.887-1.75-1.84V21a.75.75 0 0 1 .392-.66Zm1.108 2.042v9.527c0 .251.172.341.25.341h18c.078 0 .25-.09.25-.34v-9.528l-8.841 5.747a.75.75 0 0 1-.818 0l-8.841-5.747Z" fill="#003B4A"/><path fill-rule="evenodd" clip-rule="evenodd" d="M23.574 13.383a.75.75 0 0 1 .852 0l10 6.891a.75.75 0 0 1-.852 1.235L24 14.912l-9.574 6.598a.75.75 0 0 1-.852-1.235l10-6.892Z" fill="#003B4A"/></svg>