<svg width="48" height="48" viewBox="0 0 48 48" fill="none" xmlns="http://www.w3.org/2000/svg"><rect width="48" height="48" rx="24" fill="#CDE8EA"/><path fill-rule="evenodd" clip-rule="evenodd" d="M26.032 13.144a7.844 7.844 0 0 1 3.063.15 7.775 7.775 0 0 1 3.615 2.051l-.571.571.57-.57a7.775 7.775 0 0 1 2.053 3.614 7.845 7.845 0 0 1 .149 3.063.808.808 0 0 1-1.598-.238c.12-.809.081-1.636-.118-2.432a6.16 6.16 0 0 0-1.628-2.866 6.16 6.16 0 0 0-2.865-1.627 6.227 6.227 0 0 0-2.432-.118.808.808 0 0 1-.238-1.598Z" fill="#003B4A"/><path fill-rule="evenodd" clip-rule="evenodd" d="M26.232 16.998a4.034 4.034 0 0 1 3.454 1.139 4.034 4.034 0 0 1 1.138 3.453.808.808 0 1 1-1.598-.238 2.419 2.419 0 0 0-.683-2.073m0 0a2.419 2.419 0 0 0-2.073-.683.808.808 0 1 1-.238-1.598M16.625 16.35c-.887 0-1.44.795-1.186 1.545.907 2.69 2.6 6.738 5.122 9.26 2.523 2.524 6.57 4.215 9.26 5.123.751.254 1.545-.3 1.545-1.186V28.36a.27.27 0 0 0-.138-.235l-2.38-1.323a.269.269 0 0 0-.251-.005l-2.538 1.268a.807.807 0 0 1-.513.071l.152-.793-.153.793h-.004l-.009-.002-.024-.005a5.782 5.782 0 0 1-.352-.09 7.987 7.987 0 0 1-.91-.326 8.1 8.1 0 0 1-2.543-1.7 8.137 8.137 0 0 1-1.702-2.545 8.051 8.051 0 0 1-.4-1.184 4.52 4.52 0 0 1-.018-.08l-.006-.024-.001-.008v-.003l-.001-.001.793-.155-.793.154a.807.807 0 0 1 .07-.516l1.27-2.538a.27.27 0 0 0-.006-.25l-1.317-2.374a.27.27 0 0 0-.236-.138h-2.731Zm4.6 5.755v.002c.05.174.134.428.261.726.257.6.683 1.361 1.36 2.038m0 0a6.485 6.485 0 0 0 2.034 1.356c.297.127.55.21.724.26l2.27-1.135a1.885 1.885 0 0 1 1.76.038l-.366.657.365-.657 2.38 1.323c.598.333.969.963.969 1.647v2.732c0 1.897-1.79 3.353-3.677 2.717-2.724-.92-7.082-2.706-9.886-5.51-2.805-2.805-4.592-7.163-5.51-9.887l.712-.24-.713.24c-.636-1.886.82-3.677 2.717-3.677h2.731c.685 0 1.316.372 1.648.97l1.317 2.373c.302.544.316 1.201.038 1.758l-1.135 2.27" fill="#003B4A"/></svg>